<?xml version="1.0" encoding="UTF-8"?>
<svg xmlns="http://www.w3.org/2000/svg" xmlns:xlink="http://www.w3.org/1999/xlink" width="444.177pt" height="181.882pt" viewBox="0 0 444.177 181.882">
<defs>
<g>
<g id="glyph-0-0">
<path d="M 7.59375 -8.3125 C 7.59375 -8.421875 7.5 -8.421875 7.484375 -8.421875 C 7.4375 -8.421875 7.421875 -8.40625 7.28125 -8.21875 C 7.203125 -8.140625 6.71875 -7.515625 6.703125 -7.5 C 6.3125 -8.28125 5.515625 -8.421875 5.015625 -8.421875 C 3.5 -8.421875 2.125 -7.03125 2.125 -5.671875 C 2.125 -4.78125 2.671875 -4.25 3.25 -4.046875 C 3.375 -4 4.09375 -3.8125 4.453125 -3.734375 C 5.0625 -3.5625 5.21875 -3.515625 5.46875 -3.25 C 5.515625 -3.1875 5.75 -2.921875 5.75 -2.359375 C 5.75 -1.25 4.71875 -0.09375 3.53125 -0.09375 C 2.546875 -0.09375 1.453125 -0.515625 1.453125 -1.859375 C 1.453125 -2.078125 1.5 -2.359375 1.546875 -2.484375 C 1.546875 -2.515625 1.546875 -2.578125 1.546875 -2.609375 C 1.546875 -2.65625 1.53125 -2.71875 1.4375 -2.71875 C 1.328125 -2.71875 1.3125 -2.6875 1.265625 -2.484375 L 0.65625 -0.03125 C 0.65625 -0.03125 0.609375 0.125 0.609375 0.140625 C 0.609375 0.25 0.703125 0.25 0.734375 0.25 C 0.78125 0.25 0.78125 0.234375 0.9375 0.0625 L 1.484375 -0.65625 C 1.765625 -0.234375 2.390625 0.25 3.5 0.25 C 5.046875 0.25 6.453125 -1.25 6.453125 -2.734375 C 6.453125 -3.234375 6.328125 -3.6875 5.875 -4.125 C 5.625 -4.375 5.421875 -4.4375 4.3125 -4.71875 C 3.515625 -4.9375 3.40625 -4.96875 3.1875 -5.15625 C 2.984375 -5.359375 2.828125 -5.65625 2.828125 -6.0625 C 2.828125 -7.0625 3.84375 -8.09375 4.984375 -8.09375 C 6.15625 -8.09375 6.703125 -7.375 6.703125 -6.234375 C 6.703125 -5.921875 6.640625 -5.609375 6.640625 -5.5625 C 6.640625 -5.453125 6.734375 -5.453125 6.78125 -5.453125 C 6.890625 -5.453125 6.890625 -5.484375 6.9375 -5.671875 Z M 7.59375 -8.3125 "/>
</g>
<g id="glyph-0-1">
<path d="M 3.53125 -3.796875 L 5.546875 -3.796875 C 7.203125 -3.796875 8.84375 -5.015625 8.84375 -6.390625 C 8.84375 -7.3125 8.0625 -8.15625 6.546875 -8.15625 L 2.859375 -8.15625 C 2.625 -8.15625 2.515625 -8.15625 2.515625 -7.9375 C 2.515625 -7.8125 2.625 -7.8125 2.8125 -7.8125 C 3.53125 -7.8125 3.53125 -7.71875 3.53125 -7.59375 C 3.53125 -7.5625 3.53125 -7.5 3.484375 -7.3125 L 1.875 -0.890625 C 1.765625 -0.46875 1.75 -0.34375 0.90625 -0.34375 C 0.6875 -0.34375 0.5625 -0.34375 0.5625 -0.125 C 0.5625 0 0.671875 0 0.734375 0 C 0.96875 0 1.203125 -0.03125 1.4375 -0.03125 L 2.828125 -0.03125 C 3.0625 -0.03125 3.3125 0 3.53125 0 C 3.640625 0 3.765625 0 3.765625 -0.234375 C 3.765625 -0.34375 3.65625 -0.34375 3.484375 -0.34375 C 2.765625 -0.34375 2.75 -0.4375 2.75 -0.546875 C 2.75 -0.609375 2.765625 -0.6875 2.765625 -0.75 Z M 4.40625 -7.34375 C 4.5 -7.796875 4.546875 -7.8125 5.015625 -7.8125 L 6.203125 -7.8125 C 7.09375 -7.8125 7.84375 -7.53125 7.84375 -6.640625 C 7.84375 -6.328125 7.6875 -5.3125 7.140625 -4.75 C 6.9375 -4.546875 6.359375 -4.09375 5.265625 -4.09375 L 3.578125 -4.09375 Z M 4.40625 -7.34375 "/>
</g>
<g id="glyph-1-0">
<path d="M 3.890625 -2.546875 C 3.890625 -3.390625 3.8125 -3.90625 3.546875 -4.421875 C 3.203125 -5.125 2.546875 -5.296875 2.109375 -5.296875 C 1.109375 -5.296875 0.734375 -4.546875 0.625 -4.328125 C 0.34375 -3.75 0.328125 -2.953125 0.328125 -2.546875 C 0.328125 -2.015625 0.34375 -1.21875 0.734375 -0.578125 C 1.09375 0.015625 1.6875 0.171875 2.109375 0.171875 C 2.5 0.171875 3.171875 0.046875 3.578125 -0.734375 C 3.875 -1.3125 3.890625 -2.03125 3.890625 -2.546875 Z M 2.109375 -0.0625 C 1.84375 -0.0625 1.296875 -0.1875 1.125 -1.015625 C 1.03125 -1.46875 1.03125 -2.21875 1.03125 -2.640625 C 1.03125 -3.1875 1.03125 -3.75 1.125 -4.1875 C 1.296875 -5 1.90625 -5.078125 2.109375 -5.078125 C 2.375 -5.078125 2.9375 -4.9375 3.09375 -4.21875 C 3.1875 -3.78125 3.1875 -3.171875 3.1875 -2.640625 C 3.1875 -2.171875 3.1875 -1.453125 3.09375 -1 C 2.921875 -0.171875 2.375 -0.0625 2.109375 -0.0625 Z M 2.109375 -0.0625 "/>
</g>
<g id="glyph-1-1">
<path d="M 2.5 -5.078125 C 2.5 -5.296875 2.484375 -5.296875 2.265625 -5.296875 C 1.9375 -4.984375 1.515625 -4.796875 0.765625 -4.796875 L 0.765625 -4.53125 C 0.984375 -4.53125 1.40625 -4.53125 1.875 -4.734375 L 1.875 -0.65625 C 1.875 -0.359375 1.84375 -0.265625 1.09375 -0.265625 L 0.8125 -0.265625 L 0.8125 0 C 1.140625 -0.03125 1.828125 -0.03125 2.1875 -0.03125 C 2.546875 -0.03125 3.234375 -0.03125 3.5625 0 L 3.5625 -0.265625 L 3.28125 -0.265625 C 2.53125 -0.265625 2.5 -0.359375 2.5 -0.65625 Z M 2.5 -5.078125 "/>
</g>
<g id="glyph-1-2">
<path d="M 1.109375 -4.484375 C 1.21875 -4.453125 1.53125 -4.359375 1.875 -4.359375 C 2.875 -4.359375 3.46875 -5.0625 3.46875 -5.1875 C 3.46875 -5.28125 3.421875 -5.296875 3.375 -5.296875 C 3.359375 -5.296875 3.34375 -5.296875 3.28125 -5.265625 C 2.96875 -5.140625 2.59375 -5.046875 2.171875 -5.046875 C 1.703125 -5.046875 1.3125 -5.15625 1.0625 -5.265625 C 0.984375 -5.296875 0.96875 -5.296875 0.953125 -5.296875 C 0.859375 -5.296875 0.859375 -5.21875 0.859375 -5.0625 L 0.859375 -2.734375 C 0.859375 -2.59375 0.859375 -2.5 0.984375 -2.5 C 1.046875 -2.5 1.0625 -2.53125 1.109375 -2.59375 C 1.203125 -2.703125 1.5 -3.109375 2.1875 -3.109375 C 2.625 -3.109375 2.84375 -2.75 2.921875 -2.59375 C 3.046875 -2.3125 3.0625 -1.9375 3.0625 -1.640625 C 3.0625 -1.34375 3.0625 -0.90625 2.84375 -0.5625 C 2.6875 -0.3125 2.359375 -0.078125 1.9375 -0.078125 C 1.421875 -0.078125 0.921875 -0.390625 0.734375 -0.921875 C 0.75 -0.90625 0.8125 -0.90625 0.8125 -0.90625 C 1.03125 -0.90625 1.21875 -1.046875 1.21875 -1.296875 C 1.21875 -1.59375 0.984375 -1.703125 0.828125 -1.703125 C 0.671875 -1.703125 0.421875 -1.625 0.421875 -1.28125 C 0.421875 -0.5625 1.046875 0.171875 1.953125 0.171875 C 2.953125 0.171875 3.796875 -0.609375 3.796875 -1.59375 C 3.796875 -2.515625 3.125 -3.34375 2.1875 -3.34375 C 1.796875 -3.34375 1.421875 -3.21875 1.109375 -2.9375 Z M 1.109375 -4.484375 "/>
</g>
<g id="glyph-1-3">
<path d="M 3.125 -2.34375 C 3.125 -0.40625 2.203125 -0.078125 1.734375 -0.078125 C 1.5625 -0.078125 1.15625 -0.09375 0.9375 -0.34375 C 1.296875 -0.375 1.3125 -0.640625 1.3125 -0.71875 C 1.3125 -0.953125 1.125 -1.09375 0.9375 -1.09375 C 0.796875 -1.09375 0.5625 -1 0.5625 -0.703125 C 0.5625 -0.15625 1.015625 0.171875 1.75 0.171875 C 2.84375 0.171875 3.875 -0.921875 3.875 -2.625 C 3.875 -4.6875 2.953125 -5.296875 2.140625 -5.296875 C 1.1875 -5.296875 0.34375 -4.5625 0.34375 -3.515625 C 0.34375 -2.5 1.125 -1.75 2.03125 -1.75 C 2.59375 -1.75 2.9375 -2.109375 3.125 -2.515625 Z M 2.0625 -1.96875 C 1.6875 -1.96875 1.453125 -2.140625 1.28125 -2.4375 C 1.09375 -2.71875 1.09375 -3.109375 1.09375 -3.515625 C 1.09375 -3.984375 1.09375 -4.3125 1.3125 -4.640625 C 1.515625 -4.9375 1.765625 -5.09375 2.140625 -5.09375 C 2.671875 -5.09375 2.90625 -4.5625 2.9375 -4.53125 C 3.09375 -4.140625 3.109375 -3.515625 3.109375 -3.359375 C 3.109375 -2.71875 2.765625 -1.96875 2.0625 -1.96875 Z M 2.0625 -1.96875 "/>
</g>
<g id="glyph-1-4">
<path d="M 2.640625 -2.875 C 3.09375 -3.09375 3.640625 -3.484375 3.640625 -4.109375 C 3.640625 -4.875 2.859375 -5.296875 2.125 -5.296875 C 1.28125 -5.296875 0.59375 -4.71875 0.59375 -3.96875 C 0.59375 -3.671875 0.6875 -3.40625 0.890625 -3.171875 C 1.03125 -3 1.0625 -2.984375 1.546875 -2.671875 C 0.5625 -2.234375 0.34375 -1.65625 0.34375 -1.21875 C 0.34375 -0.328125 1.234375 0.171875 2.109375 0.171875 C 3.078125 0.171875 3.875 -0.5 3.875 -1.34375 C 3.875 -1.84375 3.609375 -2.171875 3.46875 -2.3125 C 3.34375 -2.4375 3.328125 -2.453125 2.640625 -2.875 Z M 1.40625 -3.625 C 1.171875 -3.765625 0.984375 -4 0.984375 -4.265625 C 0.984375 -4.765625 1.53125 -5.09375 2.109375 -5.09375 C 2.71875 -5.09375 3.234375 -4.671875 3.234375 -4.109375 C 3.234375 -3.65625 2.875 -3.265625 2.40625 -3.03125 Z M 1.796875 -2.53125 C 1.828125 -2.515625 2.734375 -1.953125 2.875 -1.875 C 3 -1.796875 3.421875 -1.546875 3.421875 -1.0625 C 3.421875 -0.453125 2.765625 -0.078125 2.125 -0.078125 C 1.40625 -0.078125 0.8125 -0.5625 0.8125 -1.21875 C 0.8125 -1.8125 1.25 -2.28125 1.796875 -2.53125 Z M 1.796875 -2.53125 "/>
</g>
<g id="glyph-1-5">
<path d="M 1.09375 -2.640625 C 1.09375 -3.296875 1.15625 -3.875 1.4375 -4.359375 C 1.6875 -4.765625 2.09375 -5.09375 2.59375 -5.09375 C 2.75 -5.09375 3.109375 -5.0625 3.296875 -4.796875 C 2.9375 -4.765625 2.90625 -4.5 2.90625 -4.421875 C 2.90625 -4.171875 3.09375 -4.046875 3.28125 -4.046875 C 3.421875 -4.046875 3.65625 -4.125 3.65625 -4.4375 C 3.65625 -4.90625 3.296875 -5.296875 2.578125 -5.296875 C 1.46875 -5.296875 0.34375 -4.25 0.34375 -2.53125 C 0.34375 -0.359375 1.359375 0.171875 2.125 0.171875 C 2.515625 0.171875 2.921875 0.0625 3.28125 -0.28125 C 3.609375 -0.59375 3.875 -0.921875 3.875 -1.625 C 3.875 -2.65625 3.078125 -3.390625 2.203125 -3.390625 C 1.625 -3.390625 1.28125 -3.03125 1.09375 -2.640625 Z M 2.125 -0.078125 C 1.703125 -0.078125 1.4375 -0.359375 1.328125 -0.59375 C 1.140625 -0.953125 1.125 -1.484375 1.125 -1.796875 C 1.125 -2.578125 1.546875 -3.171875 2.171875 -3.171875 C 2.5625 -3.171875 2.8125 -2.96875 2.953125 -2.6875 C 3.125 -2.390625 3.125 -2.03125 3.125 -1.625 C 3.125 -1.21875 3.125 -0.875 2.96875 -0.578125 C 2.75 -0.21875 2.484375 -0.078125 2.125 -0.078125 Z M 2.125 -0.078125 "/>
</g>
<g id="glyph-1-6">
<path d="M 3.46875 -1.8125 L 5.8125 -1.8125 C 5.921875 -1.8125 6.109375 -1.8125 6.109375 -1.984375 C 6.109375 -2.171875 5.921875 -2.171875 5.8125 -2.171875 L 3.46875 -2.171875 L 3.46875 -4.53125 C 3.46875 -4.640625 3.46875 -4.8125 3.296875 -4.8125 C 3.109375 -4.8125 3.109375 -4.640625 3.109375 -4.53125 L 3.109375 -2.171875 L 0.75 -2.171875 C 0.640625 -2.171875 0.46875 -2.171875 0.46875 -1.984375 C 0.46875 -1.8125 0.640625 -1.8125 0.75 -1.8125 L 3.109375 -1.8125 L 3.109375 0.546875 C 3.109375 0.65625 3.109375 0.828125 3.296875 0.828125 C 3.46875 0.828125 3.46875 0.65625 3.46875 0.546875 Z M 3.46875 -1.8125 "/>
</g>
<g id="glyph-2-0">
<path d="M 1.625 -0.4375 C 1.625 -0.703125 1.390625 -0.890625 1.171875 -0.890625 C 0.921875 -0.890625 0.734375 -0.671875 0.734375 -0.453125 C 0.734375 -0.171875 0.953125 0 1.171875 0 C 1.421875 0 1.625 -0.203125 1.625 -0.4375 Z M 1.625 -0.4375 "/>
</g>
<g id="glyph-2-1">
<path d="M 5.34375 -5.390625 C 5.359375 -5.421875 5.375 -5.46875 5.375 -5.515625 C 5.375 -5.5625 5.328125 -5.609375 5.265625 -5.609375 C 5.21875 -5.609375 5.203125 -5.59375 5.109375 -5.5 C 5.015625 -5.390625 4.8125 -5.140625 4.71875 -5.046875 C 4.421875 -5.5 3.90625 -5.609375 3.5 -5.609375 C 2.40625 -5.609375 1.453125 -4.671875 1.453125 -3.765625 C 1.453125 -3.3125 1.703125 -3.03125 1.734375 -2.984375 C 2 -2.703125 2.234375 -2.640625 2.8125 -2.5 C 3.078125 -2.4375 3.09375 -2.4375 3.328125 -2.375 C 3.5625 -2.3125 4.078125 -2.1875 4.078125 -1.53125 C 4.078125 -0.84375 3.390625 -0.09375 2.546875 -0.09375 C 2.03125 -0.09375 1.078125 -0.25 1.078125 -1.25 C 1.078125 -1.265625 1.078125 -1.4375 1.125 -1.625 L 1.140625 -1.703125 C 1.140625 -1.796875 1.046875 -1.8125 1.015625 -1.8125 C 0.921875 -1.8125 0.90625 -1.78125 0.875 -1.59375 L 0.546875 -0.296875 C 0.515625 -0.171875 0.453125 0.046875 0.453125 0.0625 C 0.453125 0.125 0.5 0.171875 0.5625 0.171875 C 0.609375 0.171875 0.625 0.15625 0.703125 0.0625 L 1.09375 -0.390625 C 1.28125 -0.15625 1.734375 0.171875 2.53125 0.171875 C 3.6875 0.171875 4.640625 -0.875 4.640625 -1.828125 C 4.640625 -2.203125 4.515625 -2.484375 4.296875 -2.703125 C 4.0625 -2.96875 3.796875 -3.03125 3.421875 -3.125 C 3.203125 -3.1875 2.890625 -3.265625 2.703125 -3.3125 C 2.46875 -3.359375 2.015625 -3.515625 2.015625 -4.078125 C 2.015625 -4.703125 2.6875 -5.375 3.5 -5.375 C 4.21875 -5.375 4.703125 -5 4.703125 -4.140625 C 4.703125 -3.9375 4.671875 -3.78125 4.671875 -3.75 C 4.671875 -3.65625 4.75 -3.640625 4.8125 -3.640625 C 4.90625 -3.640625 4.90625 -3.671875 4.9375 -3.796875 Z M 5.34375 -5.390625 "/>
</g>
<g id="glyph-2-2">
<path d="M 2.515625 -2.484375 L 3.953125 -2.484375 C 5.109375 -2.484375 6.296875 -3.28125 6.296875 -4.21875 C 6.296875 -4.90625 5.671875 -5.4375 4.640625 -5.4375 L 1.953125 -5.4375 C 1.8125 -5.4375 1.703125 -5.4375 1.703125 -5.296875 C 1.703125 -5.171875 1.8125 -5.171875 1.9375 -5.171875 C 2.203125 -5.171875 2.4375 -5.171875 2.4375 -5.046875 C 2.4375 -5.015625 2.421875 -5.015625 2.40625 -4.90625 L 1.328125 -0.625 C 1.265625 -0.328125 1.25 -0.265625 0.671875 -0.265625 C 0.5 -0.265625 0.40625 -0.265625 0.40625 -0.109375 C 0.40625 -0.078125 0.4375 0 0.53125 0 C 0.6875 0 0.875 -0.015625 1.03125 -0.03125 L 1.53125 -0.03125 C 2.296875 -0.03125 2.515625 0 2.5625 0 C 2.609375 0 2.71875 0 2.71875 -0.15625 C 2.71875 -0.265625 2.625 -0.265625 2.484375 -0.265625 C 2.46875 -0.265625 2.3125 -0.265625 2.1875 -0.28125 C 2.015625 -0.296875 2 -0.3125 2 -0.390625 C 2 -0.4375 2.015625 -0.484375 2.03125 -0.515625 Z M 3.09375 -4.890625 C 3.15625 -5.15625 3.171875 -5.171875 3.5 -5.171875 L 4.375 -5.171875 C 5.03125 -5.171875 5.53125 -4.984375 5.53125 -4.40625 C 5.53125 -4.296875 5.484375 -3.578125 5.046875 -3.140625 C 4.921875 -3.03125 4.546875 -2.71875 3.765625 -2.71875 L 2.546875 -2.71875 Z M 3.09375 -4.890625 "/>
</g>
<g id="glyph-2-3">
<path d="M 1.59375 -1.3125 C 1.625 -1.421875 1.703125 -1.734375 1.71875 -1.84375 C 1.828125 -2.28125 1.828125 -2.28125 2.015625 -2.546875 C 2.28125 -2.9375 2.65625 -3.296875 3.1875 -3.296875 C 3.46875 -3.296875 3.640625 -3.125 3.640625 -2.75 C 3.640625 -2.3125 3.3125 -1.40625 3.15625 -1.015625 C 3.046875 -0.75 3.046875 -0.703125 3.046875 -0.59375 C 3.046875 -0.140625 3.421875 0.078125 3.765625 0.078125 C 4.546875 0.078125 4.875 -1.03125 4.875 -1.140625 C 4.875 -1.21875 4.8125 -1.25 4.75 -1.25 C 4.65625 -1.25 4.640625 -1.1875 4.625 -1.109375 C 4.4375 -0.453125 4.09375 -0.140625 3.796875 -0.140625 C 3.671875 -0.140625 3.609375 -0.21875 3.609375 -0.40625 C 3.609375 -0.59375 3.671875 -0.765625 3.75 -0.96875 C 3.859375 -1.265625 4.21875 -2.1875 4.21875 -2.625 C 4.21875 -3.234375 3.796875 -3.515625 3.234375 -3.515625 C 2.578125 -3.515625 2.171875 -3.125 1.9375 -2.828125 C 1.875 -3.265625 1.53125 -3.515625 1.125 -3.515625 C 0.84375 -3.515625 0.640625 -3.328125 0.515625 -3.078125 C 0.3125 -2.703125 0.234375 -2.3125 0.234375 -2.296875 C 0.234375 -2.21875 0.296875 -2.1875 0.359375 -2.1875 C 0.46875 -2.1875 0.46875 -2.21875 0.53125 -2.4375 C 0.625 -2.828125 0.765625 -3.296875 1.09375 -3.296875 C 1.3125 -3.296875 1.359375 -3.09375 1.359375 -2.921875 C 1.359375 -2.765625 1.3125 -2.625 1.25 -2.359375 C 1.234375 -2.296875 1.109375 -1.828125 1.078125 -1.71875 L 0.78125 -0.515625 C 0.75 -0.390625 0.703125 -0.203125 0.703125 -0.171875 C 0.703125 0.015625 0.859375 0.078125 0.96875 0.078125 C 1.109375 0.078125 1.234375 -0.015625 1.28125 -0.109375 C 1.3125 -0.15625 1.375 -0.4375 1.40625 -0.59375 Z M 1.59375 -1.3125 "/>
</g>
<g id="glyph-3-0">
<path d="M 11.953125 -8.03125 C 12.0625 -8.46875 12.09375 -8.609375 13.03125 -8.609375 C 13.28125 -8.609375 13.390625 -8.609375 13.390625 -8.859375 C 13.390625 -8.984375 13.296875 -8.984375 13.046875 -8.984375 L 11.46875 -8.984375 C 11.140625 -8.984375 11.125 -8.96875 10.984375 -8.765625 L 6.1875 -1.171875 L 5.203125 -8.703125 C 5.15625 -8.984375 5.140625 -8.984375 4.796875 -8.984375 L 3.171875 -8.984375 C 2.921875 -8.984375 2.796875 -8.984375 2.796875 -8.734375 C 2.796875 -8.609375 2.921875 -8.609375 3.125 -8.609375 C 3.921875 -8.609375 3.921875 -8.5 3.921875 -8.359375 C 3.921875 -8.328125 3.921875 -8.25 3.875 -8.046875 L 2.1875 -1.34375 C 2.03125 -0.703125 1.71875 -0.421875 0.84375 -0.375 C 0.796875 -0.375 0.640625 -0.375 0.640625 -0.140625 C 0.640625 0 0.765625 0 0.8125 0 C 1.078125 0 1.75 -0.03125 2.015625 -0.03125 L 2.640625 -0.03125 C 2.828125 -0.03125 3.046875 0 3.234375 0 C 3.328125 0 3.46875 0 3.46875 -0.25 C 3.46875 -0.375 3.34375 -0.375 3.28125 -0.375 C 2.859375 -0.390625 2.4375 -0.46875 2.4375 -0.953125 C 2.4375 -1.078125 2.4375 -1.09375 2.484375 -1.28125 L 4.296875 -8.53125 L 4.3125 -8.53125 L 5.40625 -0.359375 C 5.453125 -0.046875 5.453125 0 5.578125 0 C 5.71875 0 5.78125 -0.109375 5.859375 -0.21875 L 11.140625 -8.59375 L 11.15625 -8.59375 L 9.25 -0.96875 C 9.125 -0.515625 9.109375 -0.375 8.1875 -0.375 C 7.9375 -0.375 7.796875 -0.375 7.796875 -0.140625 C 7.796875 0 7.921875 0 8 0 C 8.21875 0 8.484375 -0.03125 8.703125 -0.03125 L 10.265625 -0.03125 C 10.484375 -0.03125 10.765625 0 10.984375 0 C 11.09375 0 11.234375 0 11.234375 -0.25 C 11.234375 -0.375 11.109375 -0.375 10.921875 -0.375 C 10.109375 -0.375 10.109375 -0.484375 10.109375 -0.625 C 10.109375 -0.625 10.109375 -0.71875 10.140625 -0.828125 Z M 11.953125 -8.03125 "/>
</g>
<g id="glyph-3-1">
<path d="M 2.421875 -0.625 C 2.421875 -1.015625 2.109375 -1.28125 1.796875 -1.28125 C 1.40625 -1.28125 1.140625 -0.953125 1.140625 -0.640625 C 1.140625 -0.265625 1.453125 0 1.78125 0 C 2.15625 0 2.421875 -0.3125 2.421875 -0.625 Z M 2.421875 -0.625 "/>
</g>
<g id="glyph-4-0">
<path d="M 8.875 -4.265625 C 9.0625 -4.265625 9.296875 -4.265625 9.296875 -4.5 C 9.296875 -4.75 9.078125 -4.75 8.875 -4.75 L 1.125 -4.75 C 0.953125 -4.75 0.703125 -4.75 0.703125 -4.515625 C 0.703125 -4.265625 0.9375 -4.265625 1.125 -4.265625 Z M 8.875 -1.8125 C 9.0625 -1.8125 9.296875 -1.8125 9.296875 -2.046875 C 9.296875 -2.296875 9.078125 -2.296875 8.875 -2.296875 L 1.125 -2.296875 C 0.953125 -2.296875 0.703125 -2.296875 0.703125 -2.0625 C 0.703125 -1.8125 0.9375 -1.8125 1.125 -1.8125 Z M 8.875 -1.8125 "/>
</g>
<g id="glyph-4-1">
<path d="M 5.890625 -4.203125 C 5.890625 -5.296875 5.828125 -6.375 5.359375 -7.375 C 4.8125 -8.453125 3.875 -8.75 3.21875 -8.75 C 2.453125 -8.75 1.53125 -8.375 1.046875 -7.28125 C 0.671875 -6.453125 0.546875 -5.625 0.546875 -4.203125 C 0.546875 -2.9375 0.625 -1.96875 1.109375 -1.046875 C 1.625 -0.046875 2.53125 0.28125 3.203125 0.28125 C 4.359375 0.28125 5.015625 -0.40625 5.390625 -1.171875 C 5.875 -2.15625 5.890625 -3.453125 5.890625 -4.203125 Z M 3.203125 0.015625 C 2.796875 0.015625 1.9375 -0.21875 1.6875 -1.65625 C 1.546875 -2.453125 1.546875 -3.453125 1.546875 -4.375 C 1.546875 -5.453125 1.546875 -6.421875 1.75 -7.203125 C 1.96875 -8.078125 2.640625 -8.484375 3.203125 -8.484375 C 3.703125 -8.484375 4.46875 -8.1875 4.71875 -7.046875 C 4.890625 -6.296875 4.890625 -5.265625 4.890625 -4.375 C 4.890625 -3.484375 4.890625 -2.484375 4.75 -1.6875 C 4.5 -0.234375 3.671875 0.015625 3.203125 0.015625 Z M 3.203125 0.015625 "/>
</g>
<g id="glyph-4-2">
<path d="M 4.8125 -3.828125 C 4.8125 -0.71875 3.4375 -0.078125 2.640625 -0.078125 C 2.328125 -0.078125 1.625 -0.125 1.296875 -0.578125 L 1.375 -0.578125 C 1.46875 -0.546875 1.953125 -0.625 1.953125 -1.125 C 1.953125 -1.40625 1.75 -1.65625 1.40625 -1.65625 C 1.0625 -1.65625 0.859375 -1.4375 0.859375 -1.09375 C 0.859375 -0.28125 1.515625 0.28125 2.65625 0.28125 C 4.296875 0.28125 5.890625 -1.46875 5.890625 -4.328125 C 5.890625 -7.875 4.421875 -8.75 3.265625 -8.75 C 1.8125 -8.75 0.546875 -7.53125 0.546875 -5.796875 C 0.546875 -4.0625 1.765625 -2.875 3.078125 -2.875 C 4.046875 -2.875 4.546875 -3.59375 4.8125 -4.265625 Z M 3.125 -3.140625 C 2.296875 -3.140625 1.953125 -3.8125 1.828125 -4.0625 C 1.625 -4.5625 1.625 -5.203125 1.625 -5.78125 C 1.625 -6.53125 1.625 -7.15625 1.953125 -7.703125 C 2.203125 -8.046875 2.546875 -8.4375 3.265625 -8.4375 C 4.015625 -8.4375 4.390625 -7.78125 4.53125 -7.46875 C 4.78125 -6.828125 4.78125 -5.703125 4.78125 -5.515625 C 4.78125 -4.40625 4.28125 -3.140625 3.125 -3.140625 Z M 3.125 -3.140625 "/>
</g>
<g id="glyph-4-3">
<path d="M 3.78125 -8.4375 C 3.78125 -8.734375 3.78125 -8.75 3.53125 -8.75 C 3.203125 -8.390625 2.546875 -7.90625 1.203125 -7.90625 L 1.203125 -7.53125 C 1.5 -7.53125 2.15625 -7.53125 2.875 -7.875 L 2.875 -1.015625 C 2.875 -0.546875 2.84375 -0.375 1.6875 -0.375 L 1.28125 -0.375 L 1.28125 0 C 1.625 -0.03125 2.90625 -0.03125 3.34375 -0.03125 C 3.78125 -0.03125 5.03125 -0.03125 5.390625 0 L 5.390625 -0.375 L 4.984375 -0.375 C 3.828125 -0.375 3.78125 -0.546875 3.78125 -1.015625 Z M 3.78125 -8.4375 "/>
</g>
<g id="glyph-4-4">
<path d="M 1.6875 -7.53125 C 2.25 -7.359375 2.703125 -7.34375 2.859375 -7.34375 C 4.34375 -7.34375 5.28125 -8.4375 5.28125 -8.625 C 5.28125 -8.671875 5.265625 -8.734375 5.1875 -8.734375 C 5.15625 -8.734375 5.125 -8.734375 5.015625 -8.6875 C 4.28125 -8.375 3.640625 -8.328125 3.296875 -8.328125 C 2.4375 -8.328125 1.8125 -8.59375 1.5625 -8.703125 C 1.46875 -8.734375 1.453125 -8.734375 1.4375 -8.734375 C 1.328125 -8.734375 1.328125 -8.65625 1.328125 -8.453125 L 1.328125 -4.53125 C 1.328125 -4.296875 1.328125 -4.21875 1.484375 -4.21875 C 1.546875 -4.21875 1.5625 -4.234375 1.703125 -4.390625 C 2.0625 -4.9375 2.6875 -5.25 3.34375 -5.25 C 4.03125 -5.25 4.375 -4.609375 4.484375 -4.375 C 4.703125 -3.875 4.71875 -3.21875 4.71875 -2.71875 C 4.71875 -2.21875 4.71875 -1.46875 4.359375 -0.875 C 4.0625 -0.40625 3.546875 -0.078125 2.96875 -0.078125 C 2.109375 -0.078125 1.25 -0.671875 1.015625 -1.625 C 1.078125 -1.609375 1.15625 -1.59375 1.21875 -1.59375 C 1.453125 -1.59375 1.796875 -1.71875 1.796875 -2.171875 C 1.796875 -2.546875 1.546875 -2.75 1.21875 -2.75 C 0.984375 -2.75 0.640625 -2.625 0.640625 -2.125 C 0.640625 -1 1.546875 0.28125 3 0.28125 C 4.484375 0.28125 5.78125 -0.96875 5.78125 -2.640625 C 5.78125 -4.203125 4.734375 -5.515625 3.359375 -5.515625 C 2.609375 -5.515625 2.03125 -5.1875 1.6875 -4.8125 Z M 1.6875 -7.53125 "/>
</g>
<g id="glyph-4-5">
<path d="M 3.921875 -4.75 C 4.578125 -5.109375 5.53125 -5.703125 5.53125 -6.8125 C 5.53125 -7.953125 4.4375 -8.75 3.21875 -8.75 C 1.921875 -8.75 0.890625 -7.78125 0.890625 -6.59375 C 0.890625 -6.140625 1.03125 -5.703125 1.390625 -5.25 C 1.546875 -5.078125 1.546875 -5.0625 2.46875 -4.421875 C 1.203125 -3.828125 0.546875 -2.953125 0.546875 -1.984375 C 0.546875 -0.59375 1.875 0.28125 3.203125 0.28125 C 4.671875 0.28125 5.890625 -0.796875 5.890625 -2.1875 C 5.890625 -3.53125 4.953125 -4.125 3.921875 -4.75 Z M 2.125 -5.9375 C 1.953125 -6.046875 1.4375 -6.390625 1.4375 -7.03125 C 1.4375 -7.890625 2.328125 -8.4375 3.203125 -8.4375 C 4.15625 -8.4375 5 -7.75 5 -6.796875 C 5 -6 4.421875 -5.359375 3.65625 -4.9375 Z M 2.75 -4.234375 L 4.34375 -3.203125 C 4.6875 -2.96875 5.28125 -2.5625 5.28125 -1.765625 C 5.28125 -0.765625 4.28125 -0.078125 3.21875 -0.078125 C 2.109375 -0.078125 1.140625 -0.890625 1.140625 -1.984375 C 1.140625 -3.015625 1.890625 -3.84375 2.75 -4.234375 Z M 2.75 -4.234375 "/>
</g>
<g id="glyph-5-0">
<path d="M 9.203125 30.90625 C 9.203125 30.84375 9.1875 30.828125 9.15625 30.78125 C 8.671875 30.296875 7.78125 29.421875 6.90625 28 C 4.78125 24.609375 3.828125 20.328125 3.828125 15.265625 C 3.828125 11.71875 4.296875 7.15625 6.46875 3.234375 C 7.515625 1.375 8.59375 0.296875 9.171875 -0.296875 C 9.203125 -0.328125 9.203125 -0.359375 9.203125 -0.390625 C 9.203125 -0.53125 9.125 -0.53125 8.9375 -0.53125 C 8.75 -0.53125 8.71875 -0.53125 8.53125 -0.328125 C 4.125 3.6875 2.734375 9.703125 2.734375 15.25 C 2.734375 20.421875 3.921875 25.625 7.265625 29.5625 C 7.53125 29.859375 8.03125 30.40625 8.5625 30.875 C 8.71875 31.03125 8.75 31.03125 8.9375 31.03125 C 9.125 31.03125 9.203125 31.03125 9.203125 30.90625 Z M 9.203125 30.90625 "/>
</g>
<g id="glyph-5-1">
<path d="M 6.9375 15.265625 C 6.9375 10.09375 5.75 4.875 2.40625 0.953125 C 2.140625 0.640625 1.640625 0.109375 1.109375 -0.375 C 0.953125 -0.53125 0.921875 -0.53125 0.734375 -0.53125 C 0.578125 -0.53125 0.453125 -0.53125 0.453125 -0.390625 C 0.453125 -0.34375 0.515625 -0.296875 0.546875 -0.265625 C 1 0.203125 1.875 1.09375 2.765625 2.515625 C 4.875 5.90625 5.84375 10.1875 5.84375 15.25 C 5.84375 18.78125 5.375 23.359375 3.203125 27.265625 C 2.15625 29.140625 1.0625 30.234375 0.515625 30.78125 C 0.484375 30.828125 0.453125 30.859375 0.453125 30.90625 C 0.453125 31.03125 0.578125 31.03125 0.734375 31.03125 C 0.921875 31.03125 0.953125 31.03125 1.140625 30.84375 C 5.546875 26.828125 6.9375 20.796875 6.9375 15.265625 Z M 6.9375 15.265625 "/>
</g>
<g id="glyph-6-0">
<path d="M 0.5625 -3.421875 L 0.5625 -3.15625 L 0.71875 -3.15625 C 0.984375 -3.15625 1.234375 -3.125 1.234375 -2.75 L 1.234375 -0.296875 C 1.234375 -0.125 1.234375 0.046875 1.234375 0.21875 C 1.234375 0.640625 1.203125 1.390625 0.640625 1.390625 C 0.5 1.390625 0.375 1.359375 0.25 1.328125 L 0.25 1.3125 C 0.390625 1.265625 0.46875 1.109375 0.46875 0.96875 C 0.46875 0.75 0.28125 0.609375 0.09375 0.609375 C -0.109375 0.609375 -0.28125 0.734375 -0.28125 0.984375 C -0.28125 1.4375 0.25 1.625 0.625 1.625 C 1.15625 1.625 1.671875 1.265625 1.78125 0.703125 C 1.8125 0.546875 1.8125 0.375 1.8125 0.21875 L 1.8125 -3.515625 Z M 1.3125 -5.34375 C 1.078125 -5.3125 0.9375 -5.109375 0.9375 -4.90625 C 0.9375 -4.6875 1.109375 -4.46875 1.359375 -4.46875 C 1.640625 -4.46875 1.8125 -4.6875 1.8125 -4.921875 C 1.8125 -5.125 1.640625 -5.359375 1.390625 -5.359375 C 1.359375 -5.359375 1.34375 -5.34375 1.3125 -5.34375 Z M 1.3125 -5.34375 "/>
</g>
<g id="glyph-6-1">
<path d="M 1.0625 -3.125 L 1.0625 -3.140625 C 1.328125 -3.265625 1.546875 -3.328125 1.84375 -3.328125 C 2.375 -3.328125 2.734375 -2.921875 2.734375 -2.3125 L 2.734375 -2.125 C 1.75 -2.125 0.34375 -1.8125 0.34375 -0.8125 C 0.34375 -0.140625 1.15625 0.078125 1.671875 0.078125 C 2.125 0.078125 2.609375 -0.125 2.828125 -0.578125 C 2.828125 -0.234375 3.109375 0.03125 3.4375 0.03125 C 3.84375 0.03125 4.171875 -0.265625 4.171875 -0.6875 L 4.171875 -1.15625 L 3.921875 -1.15625 L 3.921875 -0.765625 C 3.921875 -0.5625 3.890625 -0.265625 3.640625 -0.265625 C 3.390625 -0.265625 3.359375 -0.5625 3.359375 -0.734375 L 3.359375 -2.078125 C 3.359375 -2.171875 3.359375 -2.28125 3.359375 -2.375 C 3.359375 -3.171875 2.546875 -3.546875 1.84375 -3.546875 C 1.421875 -3.546875 0.609375 -3.421875 0.609375 -2.78125 C 0.609375 -2.609375 0.71875 -2.40625 0.953125 -2.40625 C 1.21875 -2.40625 1.359375 -2.5625 1.359375 -2.765625 C 1.359375 -2.9375 1.265625 -3.09375 1.0625 -3.125 Z M 2.734375 -1.921875 L 2.734375 -1.140625 C 2.734375 -0.578125 2.3125 -0.15625 1.765625 -0.15625 C 1.40625 -0.15625 1.03125 -0.390625 1 -0.765625 L 1 -0.8125 C 1 -1.671875 2.078125 -1.875 2.734375 -1.921875 Z M 2.734375 -1.921875 "/>
</g>
<g id="glyph-6-2">
<path d="M 0.265625 -3.421875 L 0.265625 -3.15625 L 0.390625 -3.15625 C 0.640625 -3.15625 0.875 -3.140625 0.875 -2.765625 L 0.875 -0.609375 C 0.875 -0.28125 0.671875 -0.265625 0.265625 -0.265625 L 0.265625 -0.015625 L 0.75 -0.03125 L 1.65625 -0.03125 L 2.21875 -0.015625 L 2.21875 -0.265625 C 2.140625 -0.265625 2.046875 -0.265625 1.9375 -0.265625 C 1.6875 -0.265625 1.46875 -0.296875 1.46875 -0.59375 L 1.46875 -1.921875 C 1.46875 -2.5 1.78125 -3.296875 2.46875 -3.296875 C 2.390625 -3.21875 2.34375 -3.109375 2.34375 -3 C 2.34375 -2.78125 2.53125 -2.640625 2.703125 -2.640625 C 2.90625 -2.640625 3.0625 -2.8125 3.0625 -3 C 3.0625 -3.34375 2.71875 -3.515625 2.4375 -3.515625 C 1.96875 -3.515625 1.5 -3.09375 1.421875 -2.671875 L 1.40625 -3.515625 L 1.015625 -3.484375 Z M 0.265625 -3.421875 "/>
</g>
<g id="glyph-7-0">
<path d="M 1.75 -0.84375 C 1.640625 -0.421875 1.609375 -0.34375 0.75 -0.34375 C 0.5625 -0.34375 0.453125 -0.34375 0.453125 -0.125 C 0.453125 0 0.5625 0 0.75 0 L 4.640625 0 C 6.375 0 7.65625 -1.28125 7.65625 -2.359375 C 7.65625 -3.140625 7.03125 -3.78125 5.96875 -3.890625 C 7.09375 -4.09375 8.25 -4.90625 8.25 -5.9375 C 8.25 -6.75 7.53125 -7.453125 6.21875 -7.453125 L 2.546875 -7.453125 C 2.34375 -7.453125 2.234375 -7.453125 2.234375 -7.234375 C 2.234375 -7.109375 2.328125 -7.109375 2.546875 -7.109375 C 2.5625 -7.109375 2.765625 -7.109375 2.953125 -7.09375 C 3.15625 -7.0625 3.25 -7.0625 3.25 -6.921875 C 3.25 -6.875 3.234375 -6.84375 3.203125 -6.703125 Z M 3.390625 -3.984375 L 4.0625 -6.703125 C 4.171875 -7.078125 4.1875 -7.109375 4.65625 -7.109375 L 6.0625 -7.109375 C 7.03125 -7.109375 7.25 -6.46875 7.25 -5.984375 C 7.25 -5.03125 6.3125 -3.984375 4.984375 -3.984375 Z M 2.90625 -0.34375 C 2.75 -0.34375 2.71875 -0.34375 2.65625 -0.34375 C 2.546875 -0.359375 2.515625 -0.375 2.515625 -0.453125 C 2.515625 -0.484375 2.515625 -0.515625 2.578125 -0.703125 L 3.328125 -3.75 L 5.390625 -3.75 C 6.4375 -3.75 6.640625 -2.9375 6.640625 -2.46875 C 6.640625 -1.390625 5.671875 -0.34375 4.390625 -0.34375 Z M 2.90625 -0.34375 "/>
</g>
<g id="glyph-7-1">
<path d="M 10.09375 -6.609375 C 10.203125 -7 10.21875 -7.109375 11.03125 -7.109375 C 11.28125 -7.109375 11.390625 -7.109375 11.390625 -7.328125 C 11.390625 -7.453125 11.28125 -7.453125 11.09375 -7.453125 L 9.65625 -7.453125 C 9.375 -7.453125 9.359375 -7.453125 9.234375 -7.234375 L 5.25 -1.03125 L 4.390625 -7.203125 C 4.359375 -7.453125 4.34375 -7.453125 4.0625 -7.453125 L 2.5625 -7.453125 C 2.359375 -7.453125 2.234375 -7.453125 2.234375 -7.234375 C 2.234375 -7.109375 2.328125 -7.109375 2.546875 -7.109375 C 2.6875 -7.109375 2.890625 -7.09375 3.015625 -7.09375 C 3.203125 -7.0625 3.265625 -7.03125 3.265625 -6.921875 C 3.265625 -6.875 3.25 -6.84375 3.21875 -6.703125 L 1.828125 -1.15625 C 1.71875 -0.71875 1.53125 -0.375 0.65625 -0.34375 C 0.59375 -0.34375 0.453125 -0.328125 0.453125 -0.125 C 0.453125 -0.03125 0.53125 0 0.609375 0 C 0.953125 0 1.34375 -0.03125 1.703125 -0.03125 C 2.078125 -0.03125 2.46875 0 2.828125 0 C 2.875 0 3.015625 0 3.015625 -0.21875 C 3.015625 -0.34375 2.90625 -0.34375 2.828125 -0.34375 C 2.203125 -0.34375 2.078125 -0.5625 2.078125 -0.8125 C 2.078125 -0.890625 2.09375 -0.953125 2.125 -1.0625 L 3.609375 -7.015625 L 3.625 -7.015625 L 4.5625 -0.25 C 4.578125 -0.125 4.59375 0 4.71875 0 C 4.84375 0 4.90625 -0.125 4.96875 -0.203125 L 9.375 -7.09375 L 7.8125 -0.84375 C 7.703125 -0.421875 7.6875 -0.34375 6.828125 -0.34375 C 6.640625 -0.34375 6.515625 -0.34375 6.515625 -0.125 C 6.515625 0 6.65625 0 6.6875 0 C 6.984375 0 7.734375 -0.03125 8.03125 -0.03125 C 8.484375 -0.03125 8.953125 0 9.40625 0 C 9.46875 0 9.609375 0 9.609375 -0.21875 C 9.609375 -0.34375 9.515625 -0.34375 9.296875 -0.34375 C 8.90625 -0.34375 8.59375 -0.34375 8.59375 -0.53125 C 8.59375 -0.578125 8.59375 -0.59375 8.65625 -0.796875 Z M 10.09375 -6.609375 "/>
</g>
<g id="glyph-8-0">
<path d="M 7.5 -3.5625 C 7.65625 -3.5625 7.859375 -3.5625 7.859375 -3.78125 C 7.859375 -4 7.65625 -4 7.5 -4 L 0.96875 -4 C 0.8125 -4 0.609375 -4 0.609375 -3.78125 C 0.609375 -3.5625 0.8125 -3.5625 0.984375 -3.5625 Z M 7.5 -1.453125 C 7.65625 -1.453125 7.859375 -1.453125 7.859375 -1.671875 C 7.859375 -1.890625 7.65625 -1.890625 7.5 -1.890625 L 0.984375 -1.890625 C 0.8125 -1.890625 0.609375 -1.890625 0.609375 -1.671875 C 0.609375 -1.453125 0.8125 -1.453125 0.96875 -1.453125 Z M 7.5 -1.453125 "/>
</g>
<g id="glyph-9-0">
<path d="M 2.09375 -2.71875 C 2.09375 -3.046875 1.828125 -3.296875 1.515625 -3.296875 C 1.203125 -3.296875 0.9375 -3.046875 0.9375 -2.71875 C 0.9375 -2.40625 1.203125 -2.15625 1.515625 -2.15625 C 1.828125 -2.15625 2.09375 -2.40625 2.09375 -2.71875 Z M 2.09375 -2.71875 "/>
</g>
<g id="glyph-10-0">
<path d="M 3.328125 -7.453125 L 3.328125 -7.125 L 3.453125 -7.125 C 3.875 -7.125 4.15625 -7.109375 4.15625 -6.453125 L 4.15625 -4.140625 C 3.796875 -4.546875 3.34375 -4.8125 2.765625 -4.8125 C 1.46875 -4.8125 0.375 -3.703125 0.375 -2.34375 C 0.375 -1.140625 1.296875 0.09375 2.65625 0.09375 C 3.25 0.09375 3.703125 -0.15625 4.125 -0.625 L 4.125 0.09375 L 5.6875 -0.015625 L 5.6875 -0.34375 L 5.546875 -0.34375 C 5.1875 -0.34375 4.859375 -0.375 4.859375 -0.890625 L 4.859375 -7.578125 Z M 1.25 -2.09375 L 1.25 -2.25 C 1.25 -3.0625 1.359375 -3.875 2.109375 -4.390625 C 2.328125 -4.515625 2.578125 -4.5625 2.8125 -4.5625 C 3.375 -4.5625 4.140625 -4.140625 4.140625 -3.453125 C 4.140625 -3.3125 4.125 -3.171875 4.125 -3.03125 L 4.125 -1.21875 C 4.125 -1.0625 4.0625 -0.984375 3.984375 -0.859375 C 3.703125 -0.4375 3.21875 -0.125 2.71875 -0.125 C 1.890625 -0.125 1.390625 -0.90625 1.28125 -1.640625 C 1.265625 -1.78125 1.265625 -1.9375 1.25 -2.09375 Z M 1.25 -2.09375 "/>
</g>
<g id="glyph-10-1">
<path d="M 1.1875 -2.546875 L 4.34375 -2.546875 C 4.453125 -2.546875 4.5 -2.59375 4.5 -2.703125 C 4.5 -3.78125 3.921875 -4.859375 2.59375 -4.859375 C 1.28125 -4.859375 0.3125 -3.671875 0.3125 -2.421875 C 0.3125 -1.234375 1.171875 0.09375 2.640625 0.09375 C 3.46875 0.09375 4.171875 -0.34375 4.46875 -1.1875 C 4.484375 -1.234375 4.5 -1.265625 4.5 -1.3125 C 4.5 -1.375 4.4375 -1.421875 4.390625 -1.421875 C 4.203125 -1.421875 4.140625 -1.0625 4.078125 -0.9375 C 3.8125 -0.484375 3.296875 -0.15625 2.765625 -0.15625 C 2.15625 -0.15625 1.625 -0.59375 1.390625 -1.140625 C 1.203125 -1.578125 1.1875 -2.078125 1.1875 -2.546875 Z M 1.203125 -2.765625 C 1.203125 -3.609375 1.671875 -4.640625 2.578125 -4.640625 C 3.515625 -4.640625 3.796875 -3.546875 3.796875 -2.765625 Z M 1.203125 -2.765625 "/>
</g>
<g id="glyph-10-2">
<path d="M 0.203125 -4.703125 L 0.203125 -4.375 L 0.421875 -4.375 C 1 -4.375 1.03125 -4.03125 1.3125 -3.34375 C 1.75 -2.296875 2.1875 -1.25 2.59375 -0.1875 C 2.65625 -0.046875 2.6875 0.09375 2.859375 0.09375 C 3.109375 0.09375 3.3125 -0.6875 3.484375 -1.09375 C 3.78125 -1.859375 4.109375 -2.625 4.421875 -3.390625 C 4.65625 -4 4.921875 -4.375 5.5 -4.375 L 5.5 -4.703125 L 4.75 -4.671875 L 3.78125 -4.671875 L 3.78125 -4.375 C 4.03125 -4.359375 4.28125 -4.203125 4.28125 -3.921875 C 4.28125 -3.703125 4.171875 -3.515625 4.09375 -3.3125 C 3.84375 -2.6875 3.578125 -2.0625 3.328125 -1.421875 C 3.25 -1.25 3.1875 -1.046875 3.09375 -0.859375 C 2.71875 -1.859375 2.3125 -2.84375 1.890625 -3.828125 C 1.859375 -3.90625 1.828125 -4 1.828125 -4.09375 L 1.828125 -4.140625 C 1.890625 -4.375 2.203125 -4.375 2.421875 -4.375 L 2.421875 -4.703125 Z M 0.203125 -4.703125 "/>
</g>
<g id="glyph-10-3">
<path d="M 2.546875 -4.859375 C 1.15625 -4.703125 0.3125 -3.5625 0.3125 -2.328125 C 0.3125 -1.171875 1.203125 0.109375 2.703125 0.109375 C 4.0625 0.109375 5.09375 -1.0625 5.09375 -2.34375 C 5.09375 -3.625 4.125 -4.859375 2.65625 -4.859375 Z M 1.1875 -2.09375 C 1.171875 -2.1875 1.171875 -2.28125 1.171875 -2.359375 C 1.171875 -3.234375 1.375 -4.625 2.703125 -4.625 C 3.84375 -4.625 4.21875 -3.546875 4.21875 -2.5 C 4.21875 -1.609375 4.109375 -0.234375 2.765625 -0.15625 L 2.703125 -0.15625 C 1.828125 -0.15625 1.296875 -0.921875 1.21875 -1.765625 C 1.203125 -1.875 1.203125 -1.984375 1.1875 -2.09375 Z M 1.1875 -2.09375 "/>
</g>
<g id="glyph-10-4">
<path d="M 0.375 -7.453125 L 0.375 -7.125 L 0.5625 -7.125 C 0.921875 -7.125 1.203125 -7.09375 1.203125 -6.578125 L 1.203125 -0.78125 C 1.203125 -0.375 0.90625 -0.34375 0.59375 -0.34375 L 0.375 -0.34375 L 0.375 -0.015625 L 2.734375 -0.015625 L 2.734375 -0.34375 L 2.484375 -0.34375 C 2.1875 -0.34375 1.90625 -0.375 1.90625 -0.765625 L 1.90625 -7.578125 Z M 0.375 -7.453125 "/>
</g>
<g id="glyph-10-5">
<path d="M 0.359375 -4.6875 L 0.359375 -4.359375 L 0.5 -4.359375 C 0.78125 -4.359375 1.109375 -4.34375 1.171875 -4.03125 C 1.1875 -3.921875 1.1875 -3.796875 1.1875 -3.671875 L 1.1875 -1.484375 C 1.1875 -1.171875 1.203125 -0.84375 1.359375 -0.5625 C 1.640625 -0.015625 2.28125 0.09375 2.84375 0.09375 C 3.453125 0.09375 4 -0.28125 4.203125 -0.875 L 4.21875 0.09375 L 5.765625 -0.015625 L 5.765625 -0.34375 L 5.609375 -0.34375 C 5.265625 -0.34375 4.921875 -0.375 4.921875 -0.859375 L 4.921875 -4.8125 L 3.359375 -4.6875 L 3.359375 -4.359375 L 3.453125 -4.359375 C 3.828125 -4.359375 4.1875 -4.34375 4.1875 -3.8125 L 4.1875 -1.84375 C 4.1875 -1.046875 3.78125 -0.125 2.84375 -0.125 C 2.421875 -0.125 2.046875 -0.265625 1.953125 -0.8125 C 1.9375 -1.03125 1.9375 -1.234375 1.9375 -1.4375 L 1.9375 -4.8125 L 1.390625 -4.765625 Z M 0.359375 -4.6875 "/>
</g>
<g id="glyph-10-6">
<path d="M 1.609375 -6.71875 C 1.609375 -5.984375 1.3125 -4.609375 0.203125 -4.609375 L 0.203125 -4.375 L 1.140625 -4.375 L 1.140625 -1.46875 C 1.140625 -1.140625 1.15625 -0.8125 1.3125 -0.53125 C 1.578125 -0.09375 2.078125 0.09375 2.546875 0.09375 C 3.421875 0.09375 3.609375 -0.859375 3.609375 -1.5625 L 3.609375 -1.984375 L 3.34375 -1.984375 C 3.34375 -1.828125 3.359375 -1.65625 3.359375 -1.5 C 3.359375 -0.984375 3.25 -0.15625 2.609375 -0.15625 C 1.984375 -0.15625 1.875 -0.921875 1.875 -1.421875 L 1.875 -4.375 L 3.421875 -4.375 L 3.421875 -4.703125 L 1.875 -4.703125 L 1.875 -6.71875 Z M 1.609375 -6.71875 "/>
</g>
<g id="glyph-10-7">
<path d="M 0.421875 -4.6875 L 0.421875 -4.359375 L 0.59375 -4.359375 C 0.9375 -4.359375 1.203125 -4.3125 1.203125 -3.8125 L 1.203125 -0.796875 C 1.203125 -0.359375 0.921875 -0.34375 0.375 -0.34375 L 0.375 -0.015625 L 2.65625 -0.015625 L 2.65625 -0.34375 L 2.484375 -0.34375 C 2.1875 -0.34375 1.90625 -0.375 1.90625 -0.71875 L 1.90625 -4.8125 Z M 1.3125 -7.265625 C 1 -7.21875 0.84375 -6.96875 0.84375 -6.734375 C 0.84375 -6.484375 1.03125 -6.1875 1.375 -6.1875 C 1.71875 -6.1875 1.921875 -6.453125 1.921875 -6.734375 C 1.921875 -6.984375 1.75 -7.28125 1.390625 -7.28125 C 1.359375 -7.28125 1.328125 -7.265625 1.3125 -7.265625 Z M 1.3125 -7.265625 "/>
</g>
<g id="glyph-10-8">
<path d="M 0.359375 -4.6875 L 0.359375 -4.359375 L 0.53125 -4.359375 C 0.859375 -4.359375 1.1875 -4.328125 1.1875 -3.8125 L 1.1875 -0.796875 C 1.1875 -0.34375 0.890625 -0.34375 0.421875 -0.34375 L 0.359375 -0.34375 L 0.359375 -0.015625 L 2.765625 -0.015625 L 2.765625 -0.34375 L 2.515625 -0.34375 C 2.1875 -0.34375 1.9375 -0.375 1.9375 -0.78125 L 1.9375 -2.8125 C 1.9375 -3.59375 2.359375 -4.578125 3.40625 -4.578125 C 4.09375 -4.578125 4.1875 -3.875 4.1875 -3.234375 L 4.1875 -0.75 C 4.1875 -0.375 3.890625 -0.34375 3.59375 -0.34375 L 3.359375 -0.34375 L 3.359375 -0.015625 L 5.765625 -0.015625 L 5.765625 -0.34375 L 5.5 -0.34375 C 5.21875 -0.34375 4.921875 -0.34375 4.921875 -0.765625 L 4.921875 -3.234375 C 4.921875 -3.5625 4.921875 -3.890625 4.75 -4.1875 C 4.5 -4.671875 3.953125 -4.8125 3.4375 -4.8125 C 2.75 -4.8125 2.078125 -4.3125 1.890625 -3.703125 L 1.875 -4.8125 Z M 0.359375 -4.6875 "/>
</g>
<g id="glyph-10-9">
<path d="M 1.1875 -4.0625 C 1.46875 -4.40625 1.875 -4.640625 2.328125 -4.640625 C 3.125 -4.640625 3.53125 -3.953125 3.53125 -3.203125 L 3.53125 -2.84375 C 2.296875 -2.84375 0.46875 -2.4375 0.46875 -1.046875 C 0.46875 -0.234375 1.421875 0.09375 2.1875 0.09375 L 2.328125 0.09375 C 2.875 0.046875 3.46875 -0.34375 3.609375 -0.84375 L 3.625 -0.84375 C 3.65625 -0.390625 3.953125 0.046875 4.453125 0.046875 C 4.921875 0.046875 5.296875 -0.328125 5.34375 -0.796875 L 5.34375 -1.59375 L 5.078125 -1.59375 L 5.078125 -1.046875 C 5.078125 -0.75 5.03125 -0.296875 4.671875 -0.296875 C 4.34375 -0.296875 4.265625 -0.734375 4.265625 -1 C 4.265625 -1.125 4.28125 -1.25 4.28125 -1.375 L 4.28125 -2.875 C 4.28125 -3 4.28125 -3.125 4.28125 -3.265625 C 4.28125 -4.28125 3.328125 -4.859375 2.421875 -4.859375 C 1.734375 -4.859375 0.796875 -4.5 0.796875 -3.625 C 0.796875 -3.34375 0.984375 -3.125 1.265625 -3.125 C 1.53125 -3.125 1.734375 -3.328125 1.734375 -3.59375 C 1.734375 -3.84375 1.53125 -4.0625 1.265625 -4.0625 C 1.25 -4.0625 1.203125 -4.0625 1.1875 -4.0625 Z M 3.53125 -2.625 L 3.53125 -1.53125 C 3.53125 -0.78125 3.015625 -0.171875 2.296875 -0.125 L 2.25 -0.125 C 1.75 -0.125 1.28125 -0.53125 1.28125 -1.0625 L 1.28125 -1.109375 C 1.359375 -2.171875 2.515625 -2.59375 3.53125 -2.625 Z M 3.53125 -2.625 "/>
</g>
<g id="glyph-10-10">
<path d="M 0.3125 -4.6875 L 0.3125 -4.359375 L 0.484375 -4.359375 C 0.8125 -4.359375 1.140625 -4.328125 1.140625 -3.8125 L 1.140625 -0.796875 C 1.140625 -0.34375 0.84375 -0.34375 0.375 -0.34375 L 0.3125 -0.34375 L 0.3125 -0.015625 L 2.90625 -0.015625 L 2.90625 -0.34375 C 2.78125 -0.34375 2.65625 -0.328125 2.515625 -0.328125 C 2.171875 -0.328125 1.859375 -0.375 1.859375 -0.78125 L 1.859375 -2.265625 C 1.859375 -3.125 2.03125 -4.578125 3.125 -4.578125 C 3.171875 -4.578125 3.21875 -4.5625 3.265625 -4.5625 C 3.109375 -4.5 3.015625 -4.3125 3.015625 -4.15625 C 3.015625 -3.921875 3.203125 -3.734375 3.421875 -3.703125 C 3.734375 -3.703125 3.921875 -3.90625 3.921875 -4.171875 C 3.921875 -4.59375 3.5 -4.8125 3.140625 -4.8125 C 2.453125 -4.8125 1.9375 -4.1875 1.8125 -3.625 L 1.796875 -4.8125 Z M 0.3125 -4.6875 "/>
</g>
<g id="glyph-10-11">
<path d="M 0.359375 -7.453125 L 0.359375 -7.125 L 0.5625 -7.125 C 0.90625 -7.125 1.1875 -7.09375 1.1875 -6.59375 L 1.1875 -0.78125 C 1.1875 -0.375 0.921875 -0.34375 0.625 -0.34375 L 0.359375 -0.34375 L 0.359375 -0.015625 L 2.765625 -0.015625 L 2.765625 -0.34375 L 2.515625 -0.34375 C 2.1875 -0.34375 1.9375 -0.375 1.9375 -0.78125 L 1.9375 -2.8125 C 1.9375 -3.59375 2.359375 -4.578125 3.40625 -4.578125 C 4.09375 -4.578125 4.1875 -3.875 4.1875 -3.234375 L 4.1875 -0.75 C 4.1875 -0.375 3.890625 -0.34375 3.59375 -0.34375 L 3.359375 -0.34375 L 3.359375 -0.015625 L 5.765625 -0.015625 L 5.765625 -0.34375 L 5.5 -0.34375 C 5.21875 -0.34375 4.921875 -0.34375 4.921875 -0.78125 L 4.921875 -3.21875 C 4.921875 -3.5625 4.921875 -3.921875 4.734375 -4.21875 C 4.484375 -4.65625 3.984375 -4.8125 3.484375 -4.8125 C 2.8125 -4.8125 2.078125 -4.390625 1.90625 -3.75 L 1.890625 -7.578125 Z M 0.359375 -7.453125 "/>
</g>
<g id="glyph-10-12">
<path d="M 0.5625 -4.703125 L 0.453125 -2.953125 L 0.703125 -2.953125 C 0.734375 -3.328125 0.75 -3.78125 1 -4.09375 C 1.25 -4.4375 1.765625 -4.46875 2.203125 -4.46875 L 3.4375 -4.46875 C 2.484375 -3.09375 1.4375 -1.75 0.4375 -0.40625 C 0.375 -0.34375 0.3125 -0.25 0.3125 -0.15625 C 0.3125 -0.046875 0.375 -0.015625 0.46875 -0.015625 L 4.1875 -0.015625 L 4.359375 -2.046875 L 4.09375 -2.046875 C 4.0625 -1.578125 4.03125 -1.046875 3.765625 -0.703125 C 3.453125 -0.3125 2.921875 -0.265625 2.4375 -0.265625 L 1.203125 -0.265625 C 1.296875 -0.421875 1.40625 -0.546875 1.515625 -0.6875 C 2.390625 -1.90625 3.3125 -3.09375 4.1875 -4.3125 C 4.25 -4.390625 4.328125 -4.46875 4.328125 -4.5625 C 4.328125 -4.671875 4.25 -4.703125 4.171875 -4.703125 Z M 0.5625 -4.703125 "/>
</g>
<g id="glyph-10-13">
<path d="M 0.953125 -0.40625 C 1.140625 -0.078125 1.71875 0.09375 2.109375 0.09375 C 2.875 0.09375 3.8125 -0.15625 3.90625 -1.3125 C 3.90625 -2.03125 3.515625 -2.515625 2.90625 -2.765625 C 2.640625 -2.875 2.34375 -2.90625 2.078125 -2.96875 L 1.84375 -3.015625 C 1.421875 -3.09375 0.859375 -3.3125 0.859375 -3.84375 C 0.859375 -4.484375 1.578125 -4.671875 2.109375 -4.671875 C 2.90625 -4.671875 3.28125 -4.171875 3.375 -3.453125 C 3.375 -3.359375 3.375 -3.25 3.5 -3.25 C 3.625 -3.25 3.625 -3.359375 3.625 -3.453125 L 3.625 -4.734375 C 3.625 -4.78125 3.59375 -4.859375 3.515625 -4.859375 C 3.34375 -4.859375 3.234375 -4.5625 3.125 -4.5625 C 3.046875 -4.578125 2.984375 -4.640625 2.921875 -4.671875 C 2.6875 -4.8125 2.40625 -4.859375 2.125 -4.859375 C 1.46875 -4.859375 0.359375 -4.640625 0.359375 -3.5625 C 0.359375 -2.375 1.671875 -2.25 2.4375 -2.09375 C 2.90625 -2 3.390625 -1.671875 3.40625 -1.140625 C 3.40625 -0.34375 2.703125 -0.125 2.140625 -0.125 C 1.28125 -0.125 0.875 -0.796875 0.671875 -1.53125 C 0.640625 -1.640625 0.671875 -1.875 0.484375 -1.875 C 0.421875 -1.875 0.359375 -1.828125 0.359375 -1.75 L 0.359375 -0.3125 C 0.359375 -0.25 0.34375 -0.1875 0.34375 -0.125 C 0.34375 -0.03125 0.375 0.09375 0.484375 0.09375 C 0.640625 0.078125 0.78125 -0.265625 0.953125 -0.40625 Z M 0.953125 -0.40625 "/>
</g>
<g id="glyph-10-14">
<path d="M 0.3125 -4.6875 L 0.3125 -4.359375 L 0.546875 -4.359375 C 0.859375 -4.359375 1.140625 -4.3125 1.140625 -3.875 L 1.140625 1.3125 C 1.140625 1.765625 0.84375 1.78125 0.3125 1.78125 L 0.3125 2.109375 L 2.71875 2.109375 L 2.71875 1.78125 L 2.46875 1.78125 C 2.15625 1.78125 1.890625 1.734375 1.890625 1.34375 L 1.890625 -0.578125 C 2.140625 -0.125 2.78125 0.09375 3.265625 0.09375 C 4.578125 0.09375 5.640625 -1.0625 5.640625 -2.359375 C 5.640625 -3.5625 4.734375 -4.8125 3.40625 -4.8125 C 2.796875 -4.8125 2.296875 -4.578125 1.859375 -4.09375 L 1.859375 -4.8125 Z M 4.75 -2.171875 C 4.71875 -1.34375 4.265625 -0.203125 3.265625 -0.125 L 3.15625 -0.125 C 2.640625 -0.125 1.890625 -0.625 1.890625 -1.171875 L 1.890625 -3 C 1.890625 -3.140625 1.875 -3.265625 1.875 -3.40625 C 1.875 -4 2.609375 -4.546875 3.265625 -4.546875 C 4.390625 -4.546875 4.765625 -3.140625 4.765625 -2.34375 C 4.765625 -2.296875 4.765625 -2.21875 4.75 -2.171875 Z M 4.75 -2.171875 "/>
</g>
<g id="glyph-11-0">
<path d="M 1.703125 -2.40625 L 5.078125 -2.40625 C 5.265625 -2.40625 5.328125 -2.484375 5.328125 -2.65625 C 5.328125 -3.890625 4.6875 -4.953125 2.984375 -4.953125 C 2.359375 -4.953125 1.71875 -4.796875 1.234375 -4.40625 C 0.640625 -3.9375 0.34375 -3.203125 0.34375 -2.46875 C 0.34375 -0.734375 1.78125 0.046875 3.15625 0.046875 C 3.921875 0.046875 4.78125 -0.21875 5.1875 -0.90625 C 5.25 -1 5.328125 -1.140625 5.328125 -1.28125 L 5.328125 -1.296875 C 5.328125 -1.421875 5.1875 -1.46875 5.078125 -1.46875 C 4.875 -1.46875 4.890625 -1.34375 4.71875 -1.0625 C 4.40625 -0.59375 3.875 -0.375 3.296875 -0.375 C 2.78125 -0.375 2.25 -0.578125 1.96875 -1.03125 C 1.71875 -1.4375 1.703125 -1.9375 1.703125 -2.40625 Z M 1.703125 -2.734375 C 1.703125 -3.1875 1.75 -3.703125 2.015625 -4.0625 C 2.25 -4.390625 2.640625 -4.5625 3.03125 -4.5625 C 4.0625 -4.5625 4.25 -3.515625 4.3125 -2.734375 Z M 1.703125 -2.734375 "/>
</g>
<g id="glyph-11-1">
<path d="M 0.265625 -4.828125 L 0.265625 -4.359375 L 0.84375 -4.359375 C 0.921875 -4.359375 0.984375 -4.34375 1 -4.265625 L 1.375 -3.484375 C 1.859375 -2.453125 2.328125 -1.40625 2.8125 -0.375 C 2.921875 -0.171875 2.9375 0.046875 3.296875 0.046875 C 3.609375 0.046875 3.65625 -0.15625 3.734375 -0.359375 C 4.203125 -1.359375 4.671875 -2.359375 5.140625 -3.359375 L 5.4375 -3.984375 C 5.546875 -4.265625 5.65625 -4.359375 6.296875 -4.359375 L 6.296875 -4.859375 L 4.46875 -4.859375 L 4.46875 -4.359375 C 4.640625 -4.359375 4.953125 -4.34375 4.96875 -4.25 L 4.96875 -4.203125 C 4.96875 -4.140625 4.921875 -4.0625 4.890625 -4.03125 C 4.53125 -3.234375 4.171875 -2.421875 3.78125 -1.625 C 3.734375 -1.53125 3.6875 -1.421875 3.65625 -1.328125 L 2.25 -4.359375 L 2.828125 -4.359375 L 2.828125 -4.859375 L 1.703125 -4.859375 L 1.46875 -4.828125 Z M 0.265625 -4.828125 "/>
</g>
<g id="glyph-11-2">
<path d="M 0.484375 -4.828125 L 0.484375 -4.34375 L 0.703125 -4.34375 C 0.984375 -4.34375 1.234375 -4.3125 1.234375 -3.984375 L 1.234375 -0.5 L 0.484375 -0.5 L 0.484375 -0.015625 L 1.59375 -0.015625 L 1.84375 -0.046875 L 3.203125 -0.046875 L 3.203125 -0.5 L 2.4375 -0.5 L 2.4375 -2.3125 C 2.4375 -2.453125 2.4375 -2.59375 2.4375 -2.734375 C 2.4375 -3.625 3.03125 -4.53125 4.03125 -4.53125 C 4.53125 -4.53125 4.6875 -4.09375 4.6875 -3.421875 L 4.6875 -0.5 L 3.9375 -0.5 L 3.9375 -0.015625 L 5.046875 -0.015625 L 5.296875 -0.046875 L 6.65625 -0.046875 L 6.65625 -0.5 L 5.90625 -0.5 L 5.90625 -3.21875 C 5.90625 -3.59375 5.875 -4 5.671875 -4.328125 C 5.359375 -4.84375 4.71875 -4.921875 4.15625 -4.921875 C 3.40625 -4.921875 2.59375 -4.421875 2.34375 -3.71875 L 2.328125 -4.921875 L 1.09375 -4.921875 Z M 0.484375 -4.828125 "/>
</g>
<g id="glyph-11-3">
<path d="M 0.265625 -4.828125 L 0.265625 -4.359375 L 0.90625 -4.359375 C 1 -4.015625 1.203125 -3.640625 1.328125 -3.28125 C 1.734375 -2.296875 2.171875 -1.3125 2.546875 -0.3125 C 2.625 -0.109375 2.671875 0.046875 2.953125 0.046875 L 3.046875 0.046875 C 3.34375 0.015625 3.40625 -0.421875 3.515625 -0.6875 C 3.84375 -1.46875 4.203125 -2.265625 4.484375 -3.078125 L 4.5 -3.078125 C 4.640625 -2.625 4.859375 -2.1875 5.03125 -1.75 L 5.40625 -0.859375 C 5.46875 -0.6875 5.546875 -0.5 5.609375 -0.328125 C 5.703125 -0.09375 5.78125 0.046875 6.046875 0.046875 C 6.453125 0.046875 6.5625 -0.609375 6.703125 -0.96875 C 7.03125 -1.75 7.34375 -2.515625 7.65625 -3.296875 L 7.921875 -3.953125 C 8.046875 -4.25 8.0625 -4.359375 8.71875 -4.359375 L 8.71875 -4.859375 L 7.921875 -4.828125 L 6.875 -4.828125 L 6.875 -4.359375 C 7.0625 -4.359375 7.4375 -4.359375 7.484375 -4.25 L 7.484375 -4.203125 C 7.484375 -4.0625 7.296875 -3.703125 7.203125 -3.484375 C 6.890625 -2.75 6.640625 -2 6.296875 -1.28125 L 5.046875 -4.359375 L 5.65625 -4.359375 L 5.65625 -4.859375 L 3.34375 -4.859375 L 3.34375 -4.359375 L 3.859375 -4.359375 C 4.0625 -4.359375 4.203125 -3.765625 4.203125 -3.734375 C 4.203125 -3.71875 4.203125 -3.703125 4.203125 -3.671875 C 4.015625 -3.171875 3.796875 -2.6875 3.59375 -2.1875 L 3.4375 -1.796875 C 3.390625 -1.703125 3.34375 -1.609375 3.328125 -1.5 L 2.15625 -4.359375 L 2.765625 -4.359375 L 2.765625 -4.859375 L 1.640625 -4.859375 L 1.40625 -4.828125 Z M 0.265625 -4.828125 "/>
</g>
<g id="glyph-11-4">
<path d="M 0.546875 -4.828125 L 0.546875 -4.34375 L 0.78125 -4.34375 C 1.03125 -4.34375 1.25 -4.3125 1.25 -3.984375 L 1.25 -0.5 L 0.5 -0.5 L 0.5 -0.015625 L 1.59375 -0.015625 L 1.828125 -0.046875 L 3.09375 -0.046875 L 3.09375 -0.5 L 2.40625 -0.5 L 2.40625 -4.921875 L 0.953125 -4.859375 Z M 1.578125 -7.578125 C 1.140625 -7.53125 0.890625 -7.15625 0.890625 -6.796875 C 0.890625 -6.40625 1.1875 -5.984375 1.671875 -5.984375 C 2.15625 -5.984375 2.484375 -6.375 2.484375 -6.78125 C 2.484375 -7.171875 2.1875 -7.59375 1.6875 -7.59375 C 1.65625 -7.59375 1.609375 -7.59375 1.578125 -7.578125 Z M 1.578125 -7.578125 "/>
</g>
<g id="glyph-11-5">
<path d="M 3.9375 -4.46875 C 3.796875 -4.328125 3.71875 -4.171875 3.71875 -3.953125 C 3.71875 -3.609375 3.953125 -3.34375 4.359375 -3.296875 C 4.75 -3.296875 5.046875 -3.5625 5.046875 -3.953125 C 5.046875 -4.875 3.78125 -4.953125 3.296875 -4.953125 L 3.125 -4.953125 C 2.515625 -4.953125 1.890625 -4.828125 1.390625 -4.453125 C 0.734375 -4 0.421875 -3.21875 0.421875 -2.4375 C 0.421875 -1.859375 0.59375 -1.21875 0.984375 -0.796875 C 1.53125 -0.203125 2.3125 0.046875 3.09375 0.046875 C 3.875 0.046875 4.6875 -0.234375 5.046875 -0.953125 C 5.09375 -1.03125 5.1875 -1.171875 5.1875 -1.265625 C 5.1875 -1.390625 5.0625 -1.421875 4.96875 -1.421875 L 4.890625 -1.421875 C 4.671875 -1.421875 4.65625 -1.234375 4.59375 -1.09375 C 4.375 -0.625 3.859375 -0.375 3.34375 -0.375 C 1.984375 -0.375 1.765625 -1.59375 1.765625 -2.515625 C 1.765625 -3.40625 1.9375 -4.53125 3.265625 -4.53125 C 3.484375 -4.53125 3.71875 -4.5 3.9375 -4.46875 Z M 3.9375 -4.46875 "/>
</g>
<g id="glyph-11-6">
<path d="M 0.484375 -7.5 L 0.484375 -7 L 0.75 -7 C 1 -7 1.234375 -6.96875 1.234375 -6.65625 L 1.234375 -0.5 L 0.484375 -0.5 L 0.484375 -0.015625 L 1.59375 -0.015625 L 1.84375 -0.046875 L 3.203125 -0.046875 L 3.203125 -0.5 L 2.4375 -0.5 L 2.4375 -2.3125 C 2.4375 -2.453125 2.4375 -2.59375 2.4375 -2.734375 C 2.4375 -3.625 3.03125 -4.53125 4.03125 -4.53125 C 4.53125 -4.53125 4.6875 -4.09375 4.6875 -3.421875 L 4.6875 -0.5 L 3.9375 -0.5 L 3.9375 -0.015625 L 5.046875 -0.015625 L 5.296875 -0.046875 L 6.65625 -0.046875 L 6.65625 -0.5 L 5.90625 -0.5 L 5.90625 -3.203125 C 5.90625 -3.59375 5.875 -3.984375 5.6875 -4.3125 C 5.359375 -4.828125 4.75 -4.921875 4.1875 -4.921875 C 3.484375 -4.921875 2.65625 -4.5 2.40625 -3.828125 L 2.390625 -7.578125 L 1.125 -7.578125 Z M 0.484375 -7.5 "/>
</g>
<g id="glyph-11-7">
<path d="M 1.84375 -6.9375 C 1.84375 -6.0625 1.40625 -4.75 0.234375 -4.75 L 0.234375 -4.359375 L 1.125 -4.359375 L 1.125 -1.46875 C 1.125 -1.140625 1.140625 -0.8125 1.34375 -0.53125 C 1.640625 -0.09375 2.25 0.046875 2.765625 0.046875 C 3.46875 0.046875 4.15625 -0.375 4.15625 -1.453125 C 4.15625 -1.609375 4.140625 -1.78125 4.140625 -1.9375 L 3.65625 -1.9375 C 3.65625 -1.796875 3.671875 -1.640625 3.671875 -1.484375 C 3.671875 -1.03125 3.546875 -0.375 2.984375 -0.375 C 2.421875 -0.375 2.328125 -0.921875 2.328125 -1.390625 L 2.328125 -4.359375 L 3.9375 -4.359375 L 3.9375 -4.859375 L 2.328125 -4.859375 L 2.328125 -6.9375 Z M 1.84375 -6.9375 "/>
</g>
</g>
<clipPath id="clip-0">
<path clip-rule="nonzero" d="M 0 0 L 187 0 L 187 181.824219 L 0 181.824219 Z M 0 0 "/>
</clipPath>
<clipPath id="clip-1">
<path clip-rule="nonzero" d="M 224 0 L 437 0 L 437 181.824219 L 224 181.824219 Z M 224 0 "/>
</clipPath>
<clipPath id="clip-2">
<path clip-rule="nonzero" d="M 431 32 L 443.765625 32 L 443.765625 38 L 431 38 Z M 431 32 "/>
</clipPath>
<clipPath id="clip-3">
<path clip-rule="nonzero" d="M 431 126 L 443.765625 126 L 443.765625 132 L 431 132 Z M 431 126 "/>
</clipPath>
</defs>
<g clip-path="url(#clip-0)">
<path fill-rule="nonzero" fill="rgb(96.862793%, 97.724915%, 99.293518%)" fill-opacity="1" d="M -0.402344 171.847656 L -0.402344 10.921875 C -0.402344 5.417969 4.058594 0.957031 9.558594 0.957031 L 176.726562 0.957031 C 182.226562 0.957031 186.6875 5.417969 186.6875 10.921875 L 186.6875 171.847656 C 186.6875 177.351562 182.226562 181.8125 176.726562 181.8125 L 9.558594 181.8125 C 4.058594 181.8125 -0.402344 177.351562 -0.402344 171.847656 Z M -0.402344 171.847656 "/>
</g>
<g clip-path="url(#clip-1)">
<path fill-rule="nonzero" fill="rgb(95.980835%, 97.941589%, 97.155762%)" fill-opacity="1" d="M 224.105469 171.847656 L 224.105469 10.921875 C 224.105469 5.417969 228.566406 0.957031 234.070312 0.957031 L 426.179688 0.957031 C 431.679688 0.957031 436.140625 5.417969 436.140625 10.921875 L 436.140625 171.847656 C 436.140625 177.351562 431.679688 181.8125 426.179688 181.8125 L 234.070312 181.8125 C 228.566406 181.8125 224.105469 177.351562 224.105469 171.847656 Z M 224.105469 171.847656 "/>
</g>
<path fill-rule="nonzero" fill="rgb(100%, 100%, 100%)" fill-opacity="1" stroke-width="1.19553" stroke-linecap="round" stroke-linejoin="round" stroke="rgb(37.255859%, 54.508972%, 85.882568%)" stroke-opacity="1" stroke-miterlimit="10" d="M 37.700156 21.825281 C 37.700156 28.872156 31.989219 34.583094 24.94625 34.583094 C 17.899375 34.583094 12.188437 28.872156 12.188437 21.825281 C 12.188437 14.782312 17.899375 9.071375 24.94625 9.071375 C 31.989219 9.071375 37.700156 14.782312 37.700156 21.825281 Z M 37.700156 21.825281 " transform="matrix(1, 0, 0, -1, 33.8975, 113.212)"/>
<g fill="rgb(0%, 0%, 0%)" fill-opacity="1">
<use xlink:href="#glyph-0-0" x="54.8945" y="95.47"/>
</g>
<path fill-rule="nonzero" fill="rgb(100%, 100%, 100%)" fill-opacity="1" stroke-width="1.19553" stroke-linecap="round" stroke-linejoin="round" stroke="rgb(37.255859%, 54.508972%, 85.882568%)" stroke-opacity="1" stroke-miterlimit="10" d="M 106.301719 21.825281 C 106.301719 28.872156 100.590781 34.583094 93.543906 34.583094 C 86.500937 34.583094 80.79 28.872156 80.79 21.825281 C 80.79 14.782312 86.500937 9.071375 93.543906 9.071375 C 100.590781 9.071375 106.301719 14.782312 106.301719 21.825281 Z M 106.301719 21.825281 " transform="matrix(1, 0, 0, -1, 33.8975, 113.212)"/>
<g fill="rgb(0%, 0%, 0%)" fill-opacity="1">
<use xlink:href="#glyph-0-1" x="122.8555" y="95.47"/>
</g>
<path fill="none" stroke-width="0.79701" stroke-linecap="round" stroke-linejoin="round" stroke="rgb(86.274719%, 50.979614%, 15.684509%)" stroke-opacity="1" stroke-miterlimit="10" d="M 37.047812 27.469812 C 52.739219 34.786219 65.750937 34.786219 77.715781 29.208094 " transform="matrix(1, 0, 0, -1, 33.8975, 113.212)"/>
<path fill-rule="nonzero" fill="rgb(86.274719%, 50.979614%, 15.684509%)" fill-opacity="1" stroke-width="0.79701" stroke-linecap="round" stroke-linejoin="miter" stroke="rgb(86.274719%, 50.979614%, 15.684509%)" stroke-opacity="1" stroke-miterlimit="10" d="M 5.441371 0.000556873 L 1.286566 1.571634 L 2.666144 -0.00047597 L 1.286306 -1.570556 Z M 5.441371 0.000556873 " transform="matrix(0.9063, 0.4226, 0.4226, -0.9063, 109.38075, 82.9627)"/>
<g fill="rgb(86.274719%, 50.979614%, 15.684509%)" fill-opacity="1">
<use xlink:href="#glyph-1-0" x="85.6145" y="75.955"/>
</g>
<g fill="rgb(86.274719%, 50.979614%, 15.684509%)" fill-opacity="1">
<use xlink:href="#glyph-2-0" x="89.849014" y="75.955"/>
</g>
<g fill="rgb(86.274719%, 50.979614%, 15.684509%)" fill-opacity="1">
<use xlink:href="#glyph-1-1" x="92.200991" y="75.955"/>
<use xlink:href="#glyph-1-0" x="96.435505" y="75.955"/>
</g>
<path fill="none" stroke-width="0.79701" stroke-linecap="round" stroke-linejoin="round" stroke="rgb(19.607544%, 58.822632%, 43.136597%)" stroke-opacity="1" stroke-miterlimit="10" d="M 81.442344 16.184656 C 65.750937 8.86825 52.739219 8.86825 40.774375 14.446375 " transform="matrix(1, 0, 0, -1, 33.8975, 113.212)"/>
<path fill-rule="nonzero" fill="rgb(19.607544%, 58.822632%, 43.136597%)" fill-opacity="1" stroke-width="0.79701" stroke-linecap="round" stroke-linejoin="miter" stroke="rgb(19.607544%, 58.822632%, 43.136597%)" stroke-opacity="1" stroke-miterlimit="10" d="M 5.441781 0.000373998 L 1.286976 1.571451 L 2.666553 -0.000658845 L 1.286716 -1.570738 Z M 5.441781 0.000373998 " transform="matrix(-0.9063, -0.4226, -0.4226, 0.9063, 76.9047, 99.80717)"/>
<g fill="rgb(19.607544%, 58.822632%, 43.136597%)" fill-opacity="1">
<use xlink:href="#glyph-1-0" x="85.6145" y="111.951"/>
</g>
<g fill="rgb(19.607544%, 58.822632%, 43.136597%)" fill-opacity="1">
<use xlink:href="#glyph-2-0" x="89.849014" y="111.951"/>
</g>
<g fill="rgb(19.607544%, 58.822632%, 43.136597%)" fill-opacity="1">
<use xlink:href="#glyph-1-1" x="92.200991" y="111.951"/>
<use xlink:href="#glyph-1-2" x="96.435505" y="111.951"/>
</g>
<path fill="none" stroke-width="0.79701" stroke-linecap="round" stroke-linejoin="round" stroke="rgb(45.098877%, 60.195923%, 87.644958%)" stroke-opacity="1" stroke-miterlimit="10" d="M 12.395469 26.395594 C -17.725625 37.356531 -17.725625 6.297937 8.536094 15.852625 " transform="matrix(1, 0, 0, -1, 33.8975, 113.212)"/>
<path fill-rule="nonzero" fill="rgb(45.098877%, 60.195923%, 87.644958%)" fill-opacity="1" stroke-width="0.79701" stroke-linecap="round" stroke-linejoin="miter" stroke="rgb(45.098877%, 60.195923%, 87.644958%)" stroke-opacity="1" stroke-miterlimit="10" d="M 5.439293 0.000621089 L 1.288039 1.569727 L 2.666259 -0.000244446 L 1.287463 -1.572755 Z M 5.439293 0.000621089 " transform="matrix(0.93968, -0.34201, -0.34201, -0.93968, 40.11558, 98.20072)"/>
<g fill="rgb(45.098877%, 60.195923%, 87.644958%)" fill-opacity="1">
<use xlink:href="#glyph-1-0" x="4.3485" y="93.953"/>
</g>
<g fill="rgb(45.098877%, 60.195923%, 87.644958%)" fill-opacity="1">
<use xlink:href="#glyph-2-0" x="8.583014" y="93.953"/>
</g>
<g fill="rgb(45.098877%, 60.195923%, 87.644958%)" fill-opacity="1">
<use xlink:href="#glyph-1-3" x="10.934991" y="93.953"/>
<use xlink:href="#glyph-1-0" x="15.169505" y="93.953"/>
</g>
<path fill="none" stroke-width="0.79701" stroke-linecap="round" stroke-linejoin="round" stroke="rgb(45.098877%, 60.195923%, 87.644958%)" stroke-opacity="1" stroke-miterlimit="10" d="M 106.094687 17.258875 C 136.215781 6.297937 136.215781 37.356531 109.954062 27.797937 " transform="matrix(1, 0, 0, -1, 33.8975, 113.212)"/>
<path fill-rule="nonzero" fill="rgb(45.098877%, 60.195923%, 87.644958%)" fill-opacity="1" stroke-width="0.79701" stroke-linecap="round" stroke-linejoin="miter" stroke="rgb(45.098877%, 60.195923%, 87.644958%)" stroke-opacity="1" stroke-miterlimit="10" d="M 5.43946 0.000221088 L 1.288207 1.569327 L 2.662755 0.000691571 L 1.288966 -1.569484 Z M 5.43946 0.000221088 " transform="matrix(-0.93968, 0.34201, 0.34201, 0.93968, 146.16987, 84.56913)"/>
<g fill="rgb(45.098877%, 60.195923%, 87.644958%)" fill-opacity="1">
<use xlink:href="#glyph-1-0" x="166.8805" y="93.953"/>
</g>
<g fill="rgb(45.098877%, 60.195923%, 87.644958%)" fill-opacity="1">
<use xlink:href="#glyph-2-0" x="171.115014" y="93.953"/>
</g>
<g fill="rgb(45.098877%, 60.195923%, 87.644958%)" fill-opacity="1">
<use xlink:href="#glyph-1-4" x="173.466991" y="93.953"/>
<use xlink:href="#glyph-1-2" x="177.701505" y="93.953"/>
</g>
<g fill="rgb(0%, 0%, 0%)" fill-opacity="1">
<use xlink:href="#glyph-3-0" x="39.5135" y="35.428"/>
</g>
<g fill="rgb(0%, 0%, 0%)" fill-opacity="1">
<use xlink:href="#glyph-4-0" x="56.994752" y="35.428"/>
</g>
<g fill="rgb(0%, 0%, 0%)" fill-opacity="1">
<use xlink:href="#glyph-5-0" x="70.6655" y="16.8853"/>
</g>
<g fill="rgb(0%, 0%, 0%)" fill-opacity="1">
<use xlink:href="#glyph-4-1" x="80.3455" y="27.3727"/>
</g>
<g fill="rgb(0%, 0%, 0%)" fill-opacity="1">
<use xlink:href="#glyph-3-1" x="86.784093" y="27.3727"/>
</g>
<g fill="rgb(0%, 0%, 0%)" fill-opacity="1">
<use xlink:href="#glyph-4-2" x="90.361088" y="27.3727"/>
<use xlink:href="#glyph-4-1" x="96.799681" y="27.3727"/>
</g>
<g fill="rgb(0%, 0%, 0%)" fill-opacity="1">
<use xlink:href="#glyph-4-1" x="114.192823" y="27.3727"/>
</g>
<g fill="rgb(0%, 0%, 0%)" fill-opacity="1">
<use xlink:href="#glyph-3-1" x="120.631416" y="27.3727"/>
</g>
<g fill="rgb(0%, 0%, 0%)" fill-opacity="1">
<use xlink:href="#glyph-4-3" x="124.208411" y="27.3727"/>
<use xlink:href="#glyph-4-4" x="130.647004" y="27.3727"/>
</g>
<g fill="rgb(0%, 0%, 0%)" fill-opacity="1">
<use xlink:href="#glyph-4-1" x="80.3455" y="43.2633"/>
</g>
<g fill="rgb(0%, 0%, 0%)" fill-opacity="1">
<use xlink:href="#glyph-3-1" x="86.784093" y="43.2633"/>
</g>
<g fill="rgb(0%, 0%, 0%)" fill-opacity="1">
<use xlink:href="#glyph-4-3" x="90.361088" y="43.2633"/>
<use xlink:href="#glyph-4-1" x="96.799681" y="43.2633"/>
</g>
<g fill="rgb(0%, 0%, 0%)" fill-opacity="1">
<use xlink:href="#glyph-4-1" x="114.192823" y="43.2633"/>
</g>
<g fill="rgb(0%, 0%, 0%)" fill-opacity="1">
<use xlink:href="#glyph-3-1" x="120.631416" y="43.2633"/>
</g>
<g fill="rgb(0%, 0%, 0%)" fill-opacity="1">
<use xlink:href="#glyph-4-5" x="124.208411" y="43.2633"/>
<use xlink:href="#glyph-4-4" x="130.647004" y="43.2633"/>
</g>
<g fill="rgb(0%, 0%, 0%)" fill-opacity="1">
<use xlink:href="#glyph-5-1" x="137.0879" y="16.8853"/>
</g>
<path fill="none" stroke-width="1.19553" stroke-linecap="round" stroke-linejoin="round" stroke="rgb(44.999695%, 44.999695%, 44.999695%)" stroke-opacity="1" stroke-miterlimit="10" d="M 159.028281 34.301844 L 178.813437 34.301844 " transform="matrix(1, 0, 0, -1, 33.8975, 113.212)"/>
<path fill-rule="nonzero" fill="rgb(44.999695%, 44.999695%, 44.999695%)" fill-opacity="1" stroke-width="1.19553" stroke-linecap="round" stroke-linejoin="miter" stroke="rgb(44.999695%, 44.999695%, 44.999695%)" stroke-opacity="1" stroke-miterlimit="10" d="M 6.667499 0.00182375 L 1.929217 1.794792 L 3.511249 0.00182375 L 1.929217 -1.795051 Z M 6.667499 0.00182375 " transform="matrix(1, 0, 0, -1, 209.50047, 78.91198)"/>
<path fill="none" stroke-width="0.3985" stroke-linecap="round" stroke-linejoin="round" stroke="rgb(44.999695%, 44.999695%, 44.999695%)" stroke-opacity="1" stroke-miterlimit="10" d="M 212.036094 -31.182531 L 389.04 -31.182531 " transform="matrix(1, 0, 0, -1, 33.8975, 113.212)"/>
<path fill-rule="nonzero" fill="rgb(44.999695%, 44.999695%, 44.999695%)" fill-opacity="1" stroke-width="0.3985" stroke-linecap="round" stroke-linejoin="miter" stroke="rgb(44.999695%, 44.999695%, 44.999695%)" stroke-opacity="1" stroke-miterlimit="10" d="M 4.212944 -0.00086125 L 0.642631 1.346795 L 1.818413 -0.00086125 L 0.642631 -1.344611 Z M 4.212944 -0.00086125 " transform="matrix(1, 0, 0, -1, 421.22065, 144.39367)"/>
<g fill="rgb(44.999695%, 44.999695%, 44.999695%)" fill-opacity="1">
<use xlink:href="#glyph-6-0" x="407.5455" y="153.813"/>
<use xlink:href="#glyph-6-1" x="410.132594" y="153.813"/>
<use xlink:href="#glyph-6-1" x="414.365515" y="153.813"/>
<use xlink:href="#glyph-6-2" x="418.598435" y="153.813"/>
</g>
<path fill="none" stroke-width="0.3985" stroke-linecap="round" stroke-linejoin="round" stroke="rgb(44.999695%, 44.999695%, 44.999695%)" stroke-opacity="1" stroke-miterlimit="10" d="M 212.036094 -31.182531 L 212.036094 96.715906 " transform="matrix(1, 0, 0, -1, 33.8975, 113.212)"/>
<path fill-rule="nonzero" fill="rgb(44.999695%, 44.999695%, 44.999695%)" fill-opacity="1" stroke-width="0.3985" stroke-linecap="round" stroke-linejoin="miter" stroke="rgb(44.999695%, 44.999695%, 44.999695%)" stroke-opacity="1" stroke-miterlimit="10" d="M 4.21285 -0.00061375 L 0.642537 1.347043 L 1.818319 -0.00061375 L 0.642537 -1.344364 Z M 4.21285 -0.00061375 " transform="matrix(0, -1, -1, 0, 245.93298, 18.21285)"/>
<path fill="none" stroke-width="0.3985" stroke-linecap="round" stroke-linejoin="round" stroke="rgb(64.99939%, 64.99939%, 64.99939%)" stroke-opacity="1" stroke-dasharray="2.98883 2.98883" stroke-miterlimit="10" d="M 212.036094 77.954187 L 383.532187 77.954187 " transform="matrix(1, 0, 0, -1, 33.8975, 113.212)"/>
<g fill="rgb(39.99939%, 39.99939%, 39.99939%)" fill-opacity="1">
<use xlink:href="#glyph-1-3" x="421.5225" y="37.827"/>
<use xlink:href="#glyph-1-0" x="425.757014" y="37.827"/>
</g>
<g clip-path="url(#clip-2)">
<g fill="rgb(39.99939%, 39.99939%, 39.99939%)" fill-opacity="1">
<use xlink:href="#glyph-1-0" x="431.402236" y="37.827"/>
<use xlink:href="#glyph-1-0" x="435.63675" y="37.827"/>
<use xlink:href="#glyph-1-0" x="439.871264" y="37.827"/>
</g>
</g>
<path fill="none" stroke-width="0.3985" stroke-linecap="round" stroke-linejoin="round" stroke="rgb(64.99939%, 64.99939%, 64.99939%)" stroke-opacity="1" stroke-dasharray="2.98883 2.98883" stroke-miterlimit="10" d="M 212.036094 -15.592688 L 383.532187 -15.592688 " transform="matrix(1, 0, 0, -1, 33.8975, 113.212)"/>
<g fill="rgb(39.99939%, 39.99939%, 39.99939%)" fill-opacity="1">
<use xlink:href="#glyph-1-5" x="421.5225" y="131.371"/>
<use xlink:href="#glyph-1-0" x="425.757014" y="131.371"/>
</g>
<g clip-path="url(#clip-3)">
<g fill="rgb(39.99939%, 39.99939%, 39.99939%)" fill-opacity="1">
<use xlink:href="#glyph-1-0" x="431.402236" y="131.371"/>
<use xlink:href="#glyph-1-0" x="435.63675" y="131.371"/>
<use xlink:href="#glyph-1-0" x="439.871264" y="131.371"/>
</g>
</g>
<path fill="none" stroke-width="1.19553" stroke-linecap="round" stroke-linejoin="round" stroke="rgb(21.569824%, 43.136597%, 82.351685%)" stroke-opacity="1" stroke-miterlimit="10" d="M 212.036094 9.352625 L 216.32125 18.532312 L 220.610312 26.504969 L 224.899375 33.387781 L 229.184531 39.36825 L 233.473594 44.532312 L 237.75875 49.012781 L 242.047812 52.887781 L 246.332969 56.247156 L 250.622031 59.153406 L 254.911094 61.676844 L 259.19625 63.856531 L 263.485312 65.747156 L 267.770469 67.379969 L 272.059531 68.797937 L 276.344687 70.028406 L 280.63375 71.087 L 284.918906 72.012781 L 289.207969 72.80575 L 293.497031 73.497156 L 297.782187 74.090906 L 302.07125 74.614344 L 306.356406 75.059656 L 310.645469 75.450281 L 314.930625 75.782312 L 319.219687 76.075281 L 323.50875 76.325281 L 327.793906 76.547937 L 332.082969 76.731531 L 336.368125 76.8995 L 340.657187 77.040125 L 344.942344 77.165125 L 349.231406 77.266687 L 353.520469 77.360437 L 357.805625 77.438562 L 362.094687 77.508875 L 366.379844 77.567469 L 370.668906 77.622156 L 374.954062 77.665125 L 379.243125 77.704187 L 383.532187 77.739344 " transform="matrix(1, 0, 0, -1, 33.8975, 113.212)"/>
<path fill="none" stroke-width="1.19553" stroke-linecap="round" stroke-linejoin="round" stroke="rgb(78.431702%, 27.450562%, 27.450562%)" stroke-opacity="1" stroke-miterlimit="10" d="M 212.036094 53.008875 L 216.32125 43.829187 L 220.610312 35.860437 L 224.899375 28.973719 L 229.184531 22.997156 L 233.473594 17.833094 L 237.75875 13.348719 L 242.047812 9.473719 L 246.332969 6.114344 L 250.622031 3.208094 L 254.911094 0.688562 L 259.19625 -1.491125 L 263.485312 -3.38175 L 267.770469 -5.018469 L 272.059531 -6.432531 L 276.344687 -7.666906 L 280.63375 -8.721594 L 284.918906 -9.651281 L 289.207969 -10.440344 L 293.497031 -11.13175 L 297.782187 -11.729406 L 302.07125 -12.248938 L 306.356406 -12.69425 L 310.645469 -13.088781 L 314.930625 -13.420813 L 319.219687 -13.709875 L 323.50875 -13.963781 L 327.793906 -14.186438 L 332.082969 -14.370031 L 336.368125 -14.534094 L 340.657187 -14.674719 L 344.942344 -14.803625 L 349.231406 -14.905188 L 353.520469 -14.995031 L 357.805625 -15.077063 L 362.094687 -15.143469 L 366.379844 -15.205969 L 370.668906 -15.25675 L 374.954062 -15.303625 L 379.243125 -15.342688 L 383.532187 -15.373938 " transform="matrix(1, 0, 0, -1, 33.8975, 113.212)"/>
<path fill-rule="nonzero" fill="rgb(21.569824%, 43.136597%, 82.351685%)" fill-opacity="1" d="M 247.527344 103.859375 C 247.527344 102.976562 246.8125 102.261719 245.933594 102.261719 C 245.050781 102.261719 244.339844 102.976562 244.339844 103.859375 C 244.339844 104.738281 245.050781 105.453125 245.933594 105.453125 C 246.8125 105.453125 247.527344 104.738281 247.527344 103.859375 Z M 247.527344 103.859375 "/>
<path fill-rule="nonzero" fill="rgb(78.431702%, 27.450562%, 27.450562%)" fill-opacity="1" d="M 247.527344 60.203125 C 247.527344 59.324219 246.8125 58.609375 245.933594 58.609375 C 245.050781 58.609375 244.339844 59.324219 244.339844 60.203125 C 244.339844 61.082031 245.050781 61.796875 245.933594 61.796875 C 246.8125 61.796875 247.527344 61.082031 247.527344 60.203125 Z M 247.527344 60.203125 "/>
<path fill-rule="nonzero" fill="rgb(21.569824%, 43.136597%, 82.351685%)" fill-opacity="1" d="M 256.101562 86.707031 C 256.101562 85.828125 255.386719 85.113281 254.507812 85.113281 C 253.628906 85.113281 252.914062 85.828125 252.914062 86.707031 C 252.914062 87.585938 253.628906 88.300781 254.507812 88.300781 C 255.386719 88.300781 256.101562 87.585938 256.101562 86.707031 Z M 256.101562 86.707031 "/>
<path fill-rule="nonzero" fill="rgb(78.431702%, 27.450562%, 27.450562%)" fill-opacity="1" d="M 256.101562 77.351562 C 256.101562 76.472656 255.386719 75.757812 254.507812 75.757812 C 253.628906 75.757812 252.914062 76.472656 252.914062 77.351562 C 252.914062 78.234375 253.628906 78.949219 254.507812 78.949219 C 255.386719 78.949219 256.101562 78.234375 256.101562 77.351562 Z M 256.101562 77.351562 "/>
<path fill-rule="nonzero" fill="rgb(21.569824%, 43.136597%, 82.351685%)" fill-opacity="1" d="M 264.675781 73.84375 C 264.675781 72.964844 263.960938 72.25 263.082031 72.25 C 262.203125 72.25 261.488281 72.964844 261.488281 73.84375 C 261.488281 74.726562 262.203125 75.4375 263.082031 75.4375 C 263.960938 75.4375 264.675781 74.726562 264.675781 73.84375 Z M 264.675781 73.84375 "/>
<path fill-rule="nonzero" fill="rgb(78.431702%, 27.450562%, 27.450562%)" fill-opacity="1" d="M 264.675781 90.214844 C 264.675781 89.335938 263.960938 88.621094 263.082031 88.621094 C 262.203125 88.621094 261.488281 89.335938 261.488281 90.214844 C 261.488281 91.097656 262.203125 91.808594 263.082031 91.808594 C 263.960938 91.808594 264.675781 91.097656 264.675781 90.214844 Z M 264.675781 90.214844 "/>
<path fill-rule="nonzero" fill="rgb(21.569824%, 43.136597%, 82.351685%)" fill-opacity="1" d="M 273.25 64.199219 C 273.25 63.316406 272.539062 62.605469 271.65625 62.605469 C 270.777344 62.605469 270.0625 63.316406 270.0625 64.199219 C 270.0625 65.078125 270.777344 65.792969 271.65625 65.792969 C 272.539062 65.792969 273.25 65.078125 273.25 64.199219 Z M 273.25 64.199219 "/>
<path fill-rule="nonzero" fill="rgb(78.431702%, 27.450562%, 27.450562%)" fill-opacity="1" d="M 273.25 99.863281 C 273.25 98.980469 272.539062 98.269531 271.65625 98.269531 C 270.777344 98.269531 270.0625 98.980469 270.0625 99.863281 C 270.0625 100.742188 270.777344 101.457031 271.65625 101.457031 C 272.539062 101.457031 273.25 100.742188 273.25 99.863281 Z M 273.25 99.863281 "/>
<path fill-rule="nonzero" fill="rgb(21.569824%, 43.136597%, 82.351685%)" fill-opacity="1" d="M 281.824219 56.964844 C 281.824219 56.082031 281.113281 55.367188 280.230469 55.367188 C 279.351562 55.367188 278.636719 56.082031 278.636719 56.964844 C 278.636719 57.84375 279.351562 58.558594 280.230469 58.558594 C 281.113281 58.558594 281.824219 57.84375 281.824219 56.964844 Z M 281.824219 56.964844 "/>
<path fill-rule="nonzero" fill="rgb(78.431702%, 27.450562%, 27.450562%)" fill-opacity="1" d="M 281.824219 107.097656 C 281.824219 106.21875 281.113281 105.503906 280.230469 105.503906 C 279.351562 105.503906 278.636719 106.21875 278.636719 107.097656 C 278.636719 107.976562 279.351562 108.691406 280.230469 108.691406 C 281.113281 108.691406 281.824219 107.976562 281.824219 107.097656 Z M 281.824219 107.097656 "/>
<path fill-rule="nonzero" fill="rgb(21.569824%, 43.136597%, 82.351685%)" fill-opacity="1" d="M 290.402344 51.535156 C 290.402344 50.65625 289.6875 49.941406 288.808594 49.941406 C 287.925781 49.941406 287.210938 50.65625 287.210938 51.535156 C 287.210938 52.417969 287.925781 53.128906 288.808594 53.128906 C 289.6875 53.128906 290.402344 52.417969 290.402344 51.535156 Z M 290.402344 51.535156 "/>
<path fill-rule="nonzero" fill="rgb(78.431702%, 27.450562%, 27.450562%)" fill-opacity="1" d="M 290.402344 112.523438 C 290.402344 111.644531 289.6875 110.929688 288.808594 110.929688 C 287.925781 110.929688 287.210938 111.644531 287.210938 112.523438 C 287.210938 113.40625 287.925781 114.117188 288.808594 114.117188 C 289.6875 114.117188 290.402344 113.40625 290.402344 112.523438 Z M 290.402344 112.523438 "/>
<path fill-rule="nonzero" fill="rgb(21.569824%, 43.136597%, 82.351685%)" fill-opacity="1" d="M 298.976562 47.464844 C 298.976562 46.585938 298.261719 45.871094 297.382812 45.871094 C 296.5 45.871094 295.789062 46.585938 295.789062 47.464844 C 295.789062 48.347656 296.5 49.0625 297.382812 49.0625 C 298.261719 49.0625 298.976562 48.347656 298.976562 47.464844 Z M 298.976562 47.464844 "/>
<path fill-rule="nonzero" fill="rgb(78.431702%, 27.450562%, 27.450562%)" fill-opacity="1" d="M 298.976562 116.59375 C 298.976562 115.714844 298.261719 115 297.382812 115 C 296.5 115 295.789062 115.714844 295.789062 116.59375 C 295.789062 117.472656 296.5 118.1875 297.382812 118.1875 C 298.261719 118.1875 298.976562 117.472656 298.976562 116.59375 Z M 298.976562 116.59375 "/>
<path fill-rule="nonzero" fill="rgb(21.569824%, 43.136597%, 82.351685%)" fill-opacity="1" d="M 307.550781 44.414062 C 307.550781 43.535156 306.835938 42.820312 305.957031 42.820312 C 305.074219 42.820312 304.363281 43.535156 304.363281 44.414062 C 304.363281 45.292969 305.074219 46.007812 305.957031 46.007812 C 306.835938 46.007812 307.550781 45.292969 307.550781 44.414062 Z M 307.550781 44.414062 "/>
<path fill-rule="nonzero" fill="rgb(78.431702%, 27.450562%, 27.450562%)" fill-opacity="1" d="M 307.550781 119.644531 C 307.550781 118.765625 306.835938 118.050781 305.957031 118.050781 C 305.074219 118.050781 304.363281 118.765625 304.363281 119.644531 C 304.363281 120.527344 305.074219 121.238281 305.957031 121.238281 C 306.835938 121.238281 307.550781 120.527344 307.550781 119.644531 Z M 307.550781 119.644531 "/>
<path fill-rule="nonzero" fill="rgb(21.569824%, 43.136597%, 82.351685%)" fill-opacity="1" d="M 316.125 42.125 C 316.125 41.246094 315.410156 40.53125 314.53125 40.53125 C 313.652344 40.53125 312.9375 41.246094 312.9375 42.125 C 312.9375 43.003906 313.652344 43.71875 314.53125 43.71875 C 315.410156 43.71875 316.125 43.003906 316.125 42.125 Z M 316.125 42.125 "/>
<path fill-rule="nonzero" fill="rgb(78.431702%, 27.450562%, 27.450562%)" fill-opacity="1" d="M 316.125 121.933594 C 316.125 121.054688 315.410156 120.339844 314.53125 120.339844 C 313.652344 120.339844 312.9375 121.054688 312.9375 121.933594 C 312.9375 122.816406 313.652344 123.527344 314.53125 123.527344 C 315.410156 123.527344 316.125 122.816406 316.125 121.933594 Z M 316.125 121.933594 "/>
<g fill="rgb(21.569824%, 43.136597%, 82.351685%)" fill-opacity="1">
<use xlink:href="#glyph-2-1" x="236.2345" y="106.58"/>
</g>
<g fill="rgb(78.431702%, 27.450562%, 27.450562%)" fill-opacity="1">
<use xlink:href="#glyph-2-2" x="235.2845" y="62.927"/>
</g>
<g fill="rgb(0%, 0%, 0%)" fill-opacity="1">
<use xlink:href="#glyph-7-0" x="295.2565" y="23.721"/>
</g>
<g fill="rgb(0%, 0%, 0%)" fill-opacity="1">
<use xlink:href="#glyph-2-3" x="303.5315" y="25.357"/>
</g>
<g fill="rgb(0%, 0%, 0%)" fill-opacity="1">
<use xlink:href="#glyph-1-6" x="308.669823" y="25.357"/>
<use xlink:href="#glyph-1-1" x="315.256314" y="25.357"/>
</g>
<g fill="rgb(0%, 0%, 0%)" fill-opacity="1">
<use xlink:href="#glyph-8-0" x="323.0185" y="23.721"/>
</g>
<g fill="rgb(0%, 0%, 0%)" fill-opacity="1">
<use xlink:href="#glyph-7-1" x="334.536328" y="23.721"/>
</g>
<g fill="rgb(0%, 0%, 0%)" fill-opacity="1">
<use xlink:href="#glyph-9-0" x="348.730158" y="23.721"/>
</g>
<g fill="rgb(0%, 0%, 0%)" fill-opacity="1">
<use xlink:href="#glyph-7-0" x="354.182526" y="23.721"/>
</g>
<g fill="rgb(0%, 0%, 0%)" fill-opacity="1">
<use xlink:href="#glyph-2-3" x="362.4595" y="25.357"/>
</g>
<g fill="rgb(39.99939%, 39.99939%, 39.99939%)" fill-opacity="1">
<use xlink:href="#glyph-10-0" x="254.0565" y="169.984"/>
<use xlink:href="#glyph-10-1" x="260.082687" y="169.984"/>
</g>
<g fill="rgb(39.99939%, 39.99939%, 39.99939%)" fill-opacity="1">
<use xlink:href="#glyph-10-1" x="268.515421" y="169.984"/>
<use xlink:href="#glyph-10-2" x="273.337243" y="169.984"/>
</g>
<g fill="rgb(39.99939%, 39.99939%, 39.99939%)" fill-opacity="1">
<use xlink:href="#glyph-10-3" x="278.767793" y="169.984"/>
<use xlink:href="#glyph-10-4" x="284.191798" y="169.984"/>
<use xlink:href="#glyph-10-5" x="287.207073" y="169.984"/>
<use xlink:href="#glyph-10-6" x="293.23326" y="169.984"/>
<use xlink:href="#glyph-10-7" x="297.4529" y="169.984"/>
<use xlink:href="#glyph-10-1" x="300.468175" y="169.984"/>
</g>
<g fill="rgb(39.99939%, 39.99939%, 39.99939%)" fill-opacity="1">
<use xlink:href="#glyph-10-8" x="308.900909" y="169.984"/>
<use xlink:href="#glyph-10-9" x="314.927096" y="169.984"/>
<use xlink:href="#glyph-10-9" x="320.351101" y="169.984"/>
<use xlink:href="#glyph-10-10" x="325.775105" y="169.984"/>
</g>
<g fill="rgb(39.99939%, 39.99939%, 39.99939%)" fill-opacity="1">
<use xlink:href="#glyph-10-1" x="333.616566" y="169.984"/>
<use xlink:href="#glyph-10-1" x="338.438388" y="169.984"/>
</g>
<g fill="rgb(39.99939%, 39.99939%, 39.99939%)" fill-opacity="1">
<use xlink:href="#glyph-10-8" x="343.249302" y="169.984"/>
</g>
<g fill="rgb(39.99939%, 39.99939%, 39.99939%)" fill-opacity="1">
<use xlink:href="#glyph-11-0" x="352.89731" y="169.984"/>
<use xlink:href="#glyph-11-1" x="358.595133" y="169.984"/>
</g>
<g fill="rgb(39.99939%, 39.99939%, 39.99939%)" fill-opacity="1">
<use xlink:href="#glyph-11-0" x="364.823138" y="169.984"/>
<use xlink:href="#glyph-11-2" x="370.520961" y="169.984"/>
</g>
<g fill="rgb(39.99939%, 39.99939%, 39.99939%)" fill-opacity="1">
<use xlink:href="#glyph-11-3" x="377.095875" y="169.984"/>
</g>
<g fill="rgb(39.99939%, 39.99939%, 39.99939%)" fill-opacity="1">
<use xlink:href="#glyph-11-4" x="386.106792" y="169.984"/>
<use xlink:href="#glyph-11-5" x="389.56934" y="169.984"/>
</g>
<g fill="rgb(39.99939%, 39.99939%, 39.99939%)" fill-opacity="1">
<use xlink:href="#glyph-11-6" x="394.75989" y="169.984"/>
</g>
<g fill="rgb(39.99939%, 39.99939%, 39.99939%)" fill-opacity="1">
<use xlink:href="#glyph-11-7" x="401.334805" y="169.984"/>
</g>
<g fill="rgb(39.99939%, 39.99939%, 39.99939%)" fill-opacity="1">
<use xlink:href="#glyph-10-2" x="9.1285" y="168.916"/>
</g>
<g fill="rgb(39.99939%, 39.99939%, 39.99939%)" fill-opacity="1">
<use xlink:href="#glyph-10-1" x="14.548141" y="168.916"/>
<use xlink:href="#glyph-10-10" x="19.369963" y="168.916"/>
<use xlink:href="#glyph-10-11" x="23.589603" y="168.916"/>
</g>
<g fill="rgb(39.99939%, 39.99939%, 39.99939%)" fill-opacity="1">
<use xlink:href="#glyph-10-5" x="29.321244" y="168.916"/>
<use xlink:href="#glyph-10-7" x="35.347431" y="168.916"/>
<use xlink:href="#glyph-10-12" x="38.362706" y="168.916"/>
<use xlink:href="#glyph-10-1" x="43.184528" y="168.916"/>
</g>
<g fill="rgb(39.99939%, 39.99939%, 39.99939%)" fill-opacity="1">
<use xlink:href="#glyph-10-8" x="47.995441" y="168.916"/>
</g>
<g fill="rgb(39.99939%, 39.99939%, 39.99939%)" fill-opacity="1">
<use xlink:href="#glyph-10-6" x="57.64345" y="168.916"/>
<use xlink:href="#glyph-10-5" x="61.863089" y="168.916"/>
<use xlink:href="#glyph-10-13" x="67.889276" y="168.916"/>
<use xlink:href="#glyph-10-13" x="72.168916" y="168.916"/>
<use xlink:href="#glyph-10-1" x="76.448556" y="168.916"/>
<use xlink:href="#glyph-10-8" x="81.270378" y="168.916"/>
</g>
<g fill="rgb(39.99939%, 39.99939%, 39.99939%)" fill-opacity="1">
<use xlink:href="#glyph-10-13" x="90.907477" y="168.916"/>
<use xlink:href="#glyph-10-6" x="95.187117" y="168.916"/>
<use xlink:href="#glyph-10-9" x="99.406757" y="168.916"/>
<use xlink:href="#glyph-10-0" x="104.830762" y="168.916"/>
</g>
<g fill="rgb(39.99939%, 39.99939%, 39.99939%)" fill-opacity="1">
<use xlink:href="#glyph-10-1" x="114.47877" y="168.916"/>
<use xlink:href="#glyph-10-8" x="119.300592" y="168.916"/>
</g>
<g fill="rgb(39.99939%, 39.99939%, 39.99939%)" fill-opacity="1">
<use xlink:href="#glyph-10-14" x="128.937691" y="168.916"/>
<use xlink:href="#glyph-10-4" x="134.963878" y="168.916"/>
<use xlink:href="#glyph-10-9" x="137.979153" y="168.916"/>
<use xlink:href="#glyph-10-6" x="143.403157" y="168.916"/>
<use xlink:href="#glyph-10-6" x="147.622797" y="168.916"/>
<use xlink:href="#glyph-10-1" x="151.842437" y="168.916"/>
<use xlink:href="#glyph-10-4" x="156.664259" y="168.916"/>
<use xlink:href="#glyph-10-9" x="159.679535" y="168.916"/>
<use xlink:href="#glyph-10-8" x="165.103539" y="168.916"/>
<use xlink:href="#glyph-10-0" x="171.129726" y="168.916"/>
</g>
</svg>
